<svg width="720" height="465" viewBox="0 0 720 465" fill="none" xmlns="http://www.w3.org/2000/svg">
<path d="M162.99 28.8627H45.1407V177.586H162.99V28.8627Z" fill="#E0E0E0"/>
<path d="M157.081 28.8627H39.2317V177.586H157.081V28.8627Z" fill="#F5F5F5"/>
<path d="M142.449 44.9675H53.876V161.47H142.449V44.9675Z" fill="white"/>
<path d="M142.449 161.481C142.449 161.481 142.449 161.28 142.449 160.911C142.449 160.542 142.449 159.972 142.449 159.256C142.449 157.791 142.449 155.643 142.449 152.87C142.449 147.278 142.449 139.147 142.359 128.869C142.359 108.324 142.282 79.2238 142.218 44.9898L142.513 45.247H53.9532L54.2743 44.9674C54.2743 88.9202 54.2743 129.44 54.2743 161.481L54.0174 161.258L118.491 161.37L136.296 161.426H140.972H142.591H141.023H136.399H118.646L54.0174 161.537H53.7605V161.314C53.7605 129.272 53.7605 88.7525 53.7605 44.7997V44.5201H54.0945H142.655H142.95V44.9786C142.95 79.3133 142.835 108.459 142.809 129.048C142.809 139.304 142.745 147.412 142.719 152.982C142.719 155.744 142.719 157.869 142.719 159.323C142.719 160.028 142.719 160.576 142.719 160.945C142.719 161.314 142.449 161.481 142.449 161.481Z" fill="#E0E0E0"/>
<path d="M157.428 28.8627C156.818 29.8136 156.113 30.7156 155.321 31.558C153.959 33.1461 152.007 35.3158 149.797 37.6644C147.588 40.013 145.507 42.082 143.965 43.5583C143.19 44.3922 142.33 45.1633 141.396 45.8621C142.061 44.9549 142.813 44.0982 143.644 43.301L149.322 37.3065L154.974 31.2784C155.712 30.4141 156.533 29.606 157.428 28.8627Z" fill="#E0E0E0"/>
<path d="M142.899 161.101C147.297 167.179 152.468 172.807 158.314 177.877L142.899 161.101Z" fill="white"/>
<path d="M158.353 177.922C157.364 177.3 156.459 176.583 155.655 175.786C153.601 173.968 151.654 172.06 149.823 170.071C147.69 167.733 145.905 165.507 144.684 163.863C143.982 162.996 143.38 162.071 142.886 161.101C143.68 161.9 144.406 162.748 145.057 163.64C146.342 165.228 148.191 167.398 150.311 169.713C152.431 172.028 154.486 174.063 155.976 175.517C156.833 176.268 157.627 177.072 158.353 177.922Z" fill="#E0E0E0"/>
<path d="M39.2188 177.463L54.634 160.888L39.2188 177.463Z" fill="white"/>
<path d="M54.6597 160.888C52.3345 163.819 49.8392 166.645 47.1833 169.355C44.698 172.18 42.0392 174.887 39.2188 177.463C41.5439 174.532 44.0392 171.706 46.6951 168.997C49.1805 166.171 51.8392 163.465 54.6597 160.888Z" fill="#E0E0E0"/>
<path d="M39.2317 28.8627C41.8947 31.351 44.3991 33.9645 46.7338 36.6914C49.234 39.2949 51.567 42.0168 53.722 44.8445C51.0636 42.3557 48.5634 39.7422 46.2328 37.0158C43.7292 34.4119 41.392 31.69 39.2317 28.8627Z" fill="#E0E0E0"/>
<path d="M114.856 68.6215H85.1946V141.932H114.856V68.6215Z" fill="#E0E0E0"/>
<path d="M321.882 7.18823V72.3234H214.438L210.571 7.64677L321.882 7.18823Z" fill="#E0E0E0"/>
<path d="M210.559 7.64667V72.1779H318.003V7.64667H210.559Z" fill="white"/>
<path d="M318.516 72.626H210.058V7.20007H318.516V72.626ZM211.085 71.7424H317.502V8.07242H211.085V71.7424Z" fill="#E0E0E0"/>
<path d="M306.377 15.6656H222.21V64.1591H306.377V15.6656Z" fill="white"/>
<path d="M306.377 15.6657H304.758H300.134H282.792L222.21 15.9005L222.454 15.6881C222.454 30.5067 222.454 46.9246 222.454 64.1814L222.197 63.9577H306.364L306.146 64.1366C306.146 49.3851 306.236 37.2953 306.261 28.8515C306.261 24.6463 306.261 21.3583 306.261 19.0991C306.261 17.9807 306.261 17.1308 306.261 16.538C306.261 15.9453 306.261 15.6433 306.261 15.6433C306.261 15.6433 306.261 15.9229 306.261 16.4933C306.261 17.0637 306.261 17.9248 306.261 19.0208C306.261 21.2576 306.261 24.5457 306.326 28.7396C306.326 37.1947 306.39 49.3404 306.428 64.1366V64.3268H306.223H222.056H221.786V64.0919C221.786 46.8352 221.786 30.4172 221.786 15.5986V15.4532H222.03L282.779 15.5538L300.07 15.6209H304.643H306.197L306.377 15.6657Z" fill="#E0E0E0"/>
<path d="M210.571 7.46783C211.236 7.74584 211.857 8.09527 212.421 8.50794C213.513 9.20134 214.991 10.1855 216.635 11.3039C218.279 12.4223 219.666 13.5407 220.668 14.29C221.242 14.6951 221.759 15.1567 222.21 15.6656C220.163 14.4196 218.191 13.0832 216.301 11.6618C214.291 10.371 212.377 8.97017 210.571 7.46783Z" fill="#E0E0E0"/>
<path d="M318.015 7.64673C316.249 9.16019 314.36 10.5618 312.363 11.8407C310.474 13.2367 308.473 14.5149 306.377 15.6656C308.144 14.1522 310.033 12.7506 312.029 11.4717C313.916 10.0727 315.917 8.79435 318.015 7.64673Z" fill="#E0E0E0"/>
<path d="M317.925 72.1891L305.94 63.7341L317.925 72.1891Z" fill="white"/>
<path d="M305.94 63.7341C308.095 64.9644 310.155 66.3168 312.106 67.7826C314.157 69.1361 316.101 70.6083 317.925 72.1891C315.769 70.966 313.712 69.6132 311.772 68.1405C309.712 66.7926 307.763 65.3201 305.94 63.7341Z" fill="#E0E0E0"/>
<path d="M210.571 72.1779C212.317 70.6829 214.185 69.3 216.159 68.0399C218.028 66.6561 220.007 65.3891 222.081 64.2485C220.341 65.7521 218.473 67.1391 216.493 68.3978C214.627 69.7804 212.647 71.0437 210.571 72.1779Z" fill="#E0E0E0"/>
<path d="M239.295 30.775V47.0142H292.259V30.775L239.295 30.775Z" fill="#E0E0E0"/>
<path d="M759.622 299.044C759.622 299.044 749.975 295.129 742.408 314.813C734.842 334.496 732.594 345.58 732.594 345.58C732.594 345.58 730.423 349.785 726.968 347.671C723.512 345.557 718.155 338.992 713.235 340.961C708.315 342.929 707.262 348.387 709.587 355.869C711.912 363.351 716.318 379.892 716.704 381.391C717.089 382.889 716.485 385.182 713.878 384.075C711.27 382.968 695.315 371.504 689.47 378.405C683.625 385.305 694.082 405.246 695.174 407.416C696.266 409.585 695.919 410.659 694.763 411.386C693.607 412.113 688.687 407.818 683.998 404.676C679.309 401.533 673.258 398.703 670.291 402.931C667.324 407.158 668.865 422.916 690.279 446.045L701.006 456.189L716.588 453.381C749.512 445.609 761.382 433.642 761.832 428.699C762.281 423.755 755.409 422.995 749.564 423.107C743.719 423.218 736.795 424.169 736.358 422.984C735.921 421.798 736.358 420.747 738.696 419.628C741.034 418.51 762.911 407.606 762.885 399.05C762.859 390.494 742.216 391.635 739.351 391.221C736.486 390.807 737.566 388.593 738.863 387.598C740.16 386.602 754.908 375.441 761.832 370.576C768.756 365.711 771.71 360.891 768.935 356.652C766.161 352.413 757.503 355.131 753.289 355.075C749.076 355.019 750.142 350.501 750.142 350.501C750.142 350.501 755.794 340.435 762.988 320.584C770.181 300.732 759.417 299.021 759.417 299.021" fill="#EBEBEB"/>
<path d="M698.976 458.996C704.294 444.457 714.237 418.79 722.651 396.701C731.065 374.613 738.657 354.627 744.066 340.133C746.75 332.886 748.921 327.026 750.489 322.955C751.246 320.941 751.773 319.365 752.236 318.28C752.433 317.765 752.587 317.363 752.698 317.072C752.801 316.792 752.865 316.658 752.865 316.658C752.865 316.658 752.865 316.803 752.737 317.083C752.608 317.363 752.505 317.776 752.326 318.302C751.94 319.421 751.388 320.975 750.668 322.999C749.23 327.081 747.11 332.964 744.438 340.223C739.12 354.762 731.592 374.758 723.178 396.836C714.764 418.913 704.757 444.591 699.349 459.085" fill="#E0E0E0"/>
<path d="M718.322 407.203C718.697 407.098 719.085 407.03 719.478 407.002L722.626 406.599C725.272 406.264 728.946 405.783 732.967 405.112C736.988 404.441 740.597 403.758 743.244 403.222L746.339 402.607C746.715 402.505 747.103 402.445 747.496 402.428C747.14 402.568 746.77 402.681 746.391 402.763C745.671 402.953 744.631 403.222 743.333 403.524C740.764 404.128 737.116 404.877 733.057 405.537C728.997 406.197 725.349 406.655 722.664 406.901C721.38 407.035 720.249 407.125 719.491 407.17C719.103 407.21 718.712 407.222 718.322 407.203Z" fill="#E0E0E0"/>
<path d="M701.494 388.224C701.772 388.426 702.022 388.655 702.239 388.906L704.127 390.875C705.707 392.541 707.853 394.867 710.203 397.451C712.554 400.034 714.674 402.383 716.177 404.105L717.937 406.152C718.167 406.395 718.37 406.657 718.541 406.935C718.259 406.737 718.008 406.508 717.795 406.253L715.907 404.295C714.327 402.618 712.182 400.303 709.818 397.719C707.454 395.136 705.361 392.776 703.858 391.065L702.098 389.018C701.861 388.775 701.659 388.508 701.494 388.224Z" fill="#E0E0E0"/>
<path d="M684.229 416.284C684.576 416.55 684.89 416.846 685.167 417.168C685.809 417.817 686.618 418.667 687.595 419.673C689.637 421.798 692.412 424.762 695.469 428.05C698.527 431.338 701.263 434.324 703.177 436.505L705.489 439.089C705.784 439.399 706.046 439.732 706.273 440.084C705.934 439.811 705.62 439.516 705.335 439.2L702.907 436.695C700.877 434.559 698.09 431.606 695.033 428.318C691.975 425.03 689.239 422.044 687.325 419.863C686.4 418.823 685.616 417.951 685.026 417.269C684.724 416.964 684.457 416.634 684.229 416.284Z" fill="#E0E0E0"/>
<path d="M706.067 439.379C706.538 439.255 707.019 439.161 707.506 439.1L711.475 438.473C714.828 437.937 719.453 437.176 724.527 436.237C729.601 435.297 734.174 434.313 737.476 433.586L741.394 432.736C741.868 432.613 742.354 432.523 742.845 432.468C742.394 432.646 741.926 432.788 741.445 432.893C740.533 433.139 739.21 433.485 737.591 433.877C734.303 434.682 729.742 435.7 724.655 436.65C719.568 437.601 714.931 438.328 711.565 438.787C709.882 439.021 708.508 439.189 707.57 439.29C707.073 439.361 706.57 439.391 706.067 439.379Z" fill="#E0E0E0"/>
<path d="M788.282 458.593C788.282 458.75 611.79 458.884 394.141 458.884C176.491 458.884 0 458.783 0 458.593C0 458.403 176.453 458.302 394.192 458.302C611.932 458.302 788.282 458.437 788.282 458.593Z" fill="#263238"/>
<path d="M547.235 69.3868L535.012 78.4883L551.327 95.097L563.551 85.9955L547.235 69.3868Z" fill="#263238"/>
<path d="M557.799 68.0958L532.646 86.907L515.009 69.0128C521.945 60.5354 530.218 54.1383 540.123 50.2015L557.799 68.0958Z" fill="#455A64"/>
<path d="M536.885 83.7534C536.744 83.8652 532.492 79.7943 527.379 74.6832C522.267 69.5722 518.233 65.3447 518.387 65.2328C518.541 65.121 522.78 69.1919 527.893 74.303C533.006 79.414 537.027 83.6527 536.885 83.7534Z" fill="#263238"/>
<path d="M541.638 80.1744C540.622 79.3135 539.677 78.3903 538.812 77.412C537.117 75.6785 534.817 73.2739 532.287 70.5898L525.864 63.7005L523.937 61.6091C523.474 61.0946 523.23 60.8598 523.23 60.8262C523.487 60.6249 527.765 64.8636 532.826 70.2207C535.395 72.9049 537.605 75.3542 539.249 77.1548C540.146 78.0981 540.946 79.1086 541.638 80.1744Z" fill="#263238"/>
<path d="M548.061 75.3988C547.03 74.5407 546.072 73.6173 545.197 72.6364C543.488 70.8805 541.176 68.4313 538.632 65.7136L532.209 58.7125L530.282 56.5764C530.033 56.3218 529.809 56.0486 529.615 55.76C530.718 56.5539 531.71 57.4586 532.569 58.4553C534.303 60.1888 536.641 62.6269 539.172 65.3445C541.703 68.0622 543.976 70.5562 545.595 72.3792C546.513 73.3236 547.338 74.3337 548.061 75.3988Z" fill="#263238"/>
<path d="M553.855 70.9253C553.714 71.026 549.487 66.9215 544.413 61.7545C539.339 56.5876 535.357 52.3041 535.498 52.1923C535.639 52.0805 539.853 56.1961 544.927 61.3743C550.001 66.5524 553.996 70.8247 553.855 70.9253Z" fill="#263238"/>
<path d="M659.924 32.3632H640.886V58.2316H659.924V32.3632Z" fill="#263238"/>
<path d="M670.098 40.1026H630.918V12.221C644.65 9.26848 657.753 9.08954 670.137 12.221L670.098 40.1026Z" fill="#A338A9"/>
<path d="M670.599 12.3328C670.14 12.5828 669.654 12.7926 669.148 12.9591C667.806 13.4734 666.429 13.9142 665.024 14.2788C662.919 14.8432 660.774 15.2841 658.601 15.5986C655.962 15.9632 653.296 16.1576 650.624 16.1801C647.954 16.1836 645.287 16.0116 642.646 15.6657C640.475 15.3724 638.329 14.9502 636.223 14.4019C634.817 14.0436 633.436 13.6141 632.087 13.1157C631.577 12.9617 631.09 12.7552 630.635 12.5006C630.635 12.3999 632.794 13.1716 636.352 13.9992C638.44 14.4797 640.559 14.8532 642.698 15.1176C645.312 15.4256 647.947 15.5825 650.585 15.5874C653.225 15.5612 655.86 15.3819 658.473 15.0505C660.602 14.7824 662.712 14.409 664.793 13.9321C668.441 13.0262 670.548 12.2321 670.599 12.3328Z" fill="#263238"/>
<path d="M643.867 40.0243C643.687 40.0243 643.533 34.6672 643.533 28.0687C643.533 21.4701 643.687 16.113 643.867 16.113C644.047 16.113 644.201 21.459 644.201 28.0687C644.201 34.6784 644.06 40.0243 643.867 40.0243Z" fill="#263238"/>
<path d="M651.33 40.1807C651.15 40.1807 650.996 34.8013 650.996 28.1693C650.996 21.5373 651.15 16.169 651.33 16.169C651.51 16.169 651.664 21.5373 651.664 28.1693C651.664 34.8013 651.523 40.1807 651.33 40.1807Z" fill="#263238"/>
<path d="M658.794 40.0803C658.614 40.0803 658.46 34.7008 658.46 28.0687C658.46 21.4366 658.614 16.0571 658.794 16.0571C658.974 16.0571 659.128 21.4366 659.128 28.0687C659.128 34.7008 658.987 40.0803 658.794 40.0803Z" fill="#263238"/>
<path d="M664.96 40.0801C664.767 40.0801 664.626 34.2645 664.626 27.0956C664.626 19.9267 664.767 14.1111 664.96 14.1111C665.153 14.1111 665.294 19.9267 665.294 27.0956C665.294 34.2645 665.191 40.0801 664.96 40.0801Z" fill="#263238"/>
<path d="M636.814 39.9124C636.635 39.9124 636.48 34.0968 636.48 26.9278C636.48 19.7589 636.635 13.9432 636.814 13.9432C636.994 13.9432 637.148 19.7589 637.148 26.9278C637.148 34.0968 637.007 39.9124 636.814 39.9124Z" fill="#263238"/>
<path d="M746.053 256.099C800.147 209.003 800.147 132.646 746.053 85.5505C691.958 38.4548 604.253 38.4548 550.158 85.5505C496.063 132.646 496.063 209.003 550.158 256.099C604.253 303.195 691.958 303.195 746.053 256.099Z" fill="#A338A9"/>
<path d="M648.106 271.151C712.355 271.151 764.439 225.806 764.439 169.869C764.439 113.933 712.355 68.588 648.106 68.588C583.857 68.588 531.773 113.933 531.773 169.869C531.773 225.806 583.857 271.151 648.106 271.151Z" fill="#FAFAFA"/>
<path d="M764.439 169.869C764.439 169.869 764.439 169.321 764.349 168.237C764.259 167.152 764.349 165.53 764.105 163.416C763.647 157.249 762.537 151.132 760.791 145.142C759.532 140.818 757.94 136.574 756.025 132.437C753.775 127.505 751.068 122.74 747.932 118.189C740.26 107.07 730.234 97.3205 718.386 89.4571C704.007 79.9325 687.268 73.4675 669.507 70.5786C654.454 68.1672 639.005 68.3229 624.02 71.0372C618.757 72.0317 613.574 73.3205 608.502 74.8956C586.918 81.7406 568.145 93.9948 554.549 110.114C551.001 114.311 547.839 118.747 545.094 123.378C543.668 125.693 542.448 128.097 541.24 130.513C540.033 132.929 538.954 135.434 538.042 137.984C536.07 143.087 534.592 148.324 533.623 153.642C532.648 159.017 532.137 164.449 532.094 169.892C532.139 175.337 532.646 180.773 533.61 186.153C534.594 191.468 536.071 196.704 538.029 201.811C538.954 204.349 540.11 206.81 541.227 209.27C542.345 211.731 543.694 214.102 545.081 216.417C547.826 221.051 550.992 225.486 554.549 229.681C568.142 245.805 586.916 258.064 608.502 264.91C613.574 266.485 618.757 267.774 624.02 268.769C629.151 269.702 634.348 270.334 639.576 270.659C649.582 271.317 659.644 270.836 669.507 269.227C687.268 266.338 704.007 259.873 718.386 250.349C730.238 242.489 740.264 232.738 747.932 221.617C751.066 217.065 753.772 212.3 756.025 207.369C760.588 197.481 763.315 187.024 764.105 176.39C764.324 174.276 764.285 172.654 764.349 171.569C764.414 170.485 764.439 169.925 764.439 169.925C764.439 169.925 764.439 170.485 764.439 171.569C764.439 172.654 764.439 174.276 764.259 176.39C763.556 187.054 760.88 197.549 756.333 207.47C754.096 212.425 751.398 217.212 748.266 221.785C740.612 232.96 730.585 242.763 718.72 250.673C704.29 260.256 687.485 266.767 669.649 269.686C659.741 271.316 649.632 271.812 639.576 271.162C634.322 270.838 629.099 270.206 623.943 269.272C618.649 268.281 613.435 266.988 608.335 265.402C586.623 258.531 567.737 246.214 554.061 230.005C550.491 225.788 547.312 221.33 544.555 216.674C543.116 214.348 541.883 211.91 540.624 209.483C539.365 207.056 538.337 204.54 537.412 201.978C535.442 196.851 533.955 191.592 532.967 186.254C530.929 175.425 530.929 164.38 532.967 153.552C533.96 148.237 535.447 143 537.412 137.895C538.35 135.333 539.506 132.862 540.637 130.39C541.767 127.919 543.116 125.536 544.555 123.21C547.321 118.556 550.504 114.099 554.073 109.879C567.744 93.6722 586.627 81.3581 608.335 74.493C613.431 72.909 618.64 71.6163 623.93 70.6234C629.091 69.6899 634.318 69.0584 639.576 68.7333C649.627 68.0833 659.733 68.5796 669.636 70.2096C687.477 73.1158 704.285 79.6281 718.708 89.2222C730.572 97.1369 740.599 106.944 748.253 118.121C754.007 126.559 758.334 135.674 761.099 145.187C762.813 151.198 763.884 157.334 764.298 163.517C764.491 165.631 764.426 167.252 764.478 168.337C764.529 169.422 764.439 169.869 764.439 169.869Z" fill="#263238"/>
<path d="M719.298 230.218C716.652 227.981 714.687 225.99 714.918 225.744C715.149 225.498 717.487 227.164 720.185 229.379C722.882 231.593 724.822 233.573 724.565 233.853C724.308 234.132 721.932 232.466 719.298 230.218Z" fill="#263238"/>
<path d="M698.103 244.645C696.253 241.86 694.968 239.489 695.251 239.344C695.534 239.198 697.306 241.323 699.207 244.075C701.109 246.826 702.393 249.197 702.072 249.376C701.751 249.555 699.965 247.407 698.103 244.645Z" fill="#263238"/>
<path d="M673.246 253.581C672.321 250.46 671.82 247.877 672.141 247.81C672.462 247.743 673.503 250.192 674.492 253.29C675.481 256.388 675.969 258.972 675.596 259.061C675.224 259.151 674.171 256.69 673.246 253.581Z" fill="#263238"/>
<path d="M646.539 256.354C646.539 253.134 646.911 250.528 647.232 250.528C647.554 250.528 647.823 253.145 647.823 256.354C647.823 259.564 647.502 262.181 647.13 262.181C646.757 262.181 646.474 259.587 646.539 256.354Z" fill="#263238"/>
<path d="M619.999 252.854C621.052 249.767 622.157 247.34 622.478 247.419C622.799 247.497 622.234 250.069 621.194 253.167C620.153 256.265 619.087 258.759 618.714 258.603C618.342 258.446 618.881 255.941 619.999 252.854Z" fill="#263238"/>
<path d="M595.425 243.225C597.39 240.507 599.202 238.416 599.484 238.561C599.767 238.706 598.431 241.066 596.517 243.817C594.602 246.569 592.778 248.649 592.457 248.481C592.136 248.313 593.459 245.954 595.425 243.225Z" fill="#263238"/>
<path d="M574.755 228.238C577.492 226.069 579.894 224.48 580.099 224.693C580.305 224.905 578.327 226.851 575.629 229.055C572.931 231.258 570.555 232.846 570.285 232.611C570.015 232.376 572.032 230.408 574.755 228.238Z" fill="#263238"/>
<path d="M559.443 208.979C562.744 207.537 565.545 206.564 565.686 206.81C565.828 207.056 563.31 208.476 560.034 209.975C556.758 211.473 553.971 212.446 553.791 212.145C553.611 211.843 556.154 210.433 559.443 208.979Z" fill="#263238"/>
<path d="M550.631 186.858C554.266 186.231 557.259 185.952 557.323 186.231C557.388 186.511 554.51 187.283 550.9 187.954C547.291 188.625 544.285 188.904 544.208 188.58C544.13 188.256 547.034 187.484 550.631 186.858Z" fill="#263238"/>
<path d="M548.999 163.528C552.686 163.763 555.653 164.188 555.641 164.468C555.628 164.747 552.609 164.825 548.922 164.635C545.235 164.445 542.255 164.031 542.281 163.696C542.306 163.36 545.312 163.237 548.999 163.528Z" fill="#263238"/>
<path d="M554.587 140.568C558.068 141.686 560.792 142.804 560.689 143.039C560.586 143.274 557.657 142.67 554.163 141.619C550.669 140.568 547.946 139.472 548.061 139.158C548.177 138.845 551.119 139.472 554.587 140.568Z" fill="#263238"/>
<path d="M567.061 119.821C570.067 121.689 572.353 123.389 572.199 123.624C572.045 123.859 569.399 122.561 566.354 120.738C563.31 118.916 561.023 117.216 561.216 116.936C561.408 116.656 564.042 117.954 567.061 119.821Z" fill="#263238"/>
<path d="M585.443 102.732C587.768 105.226 589.451 107.396 589.207 107.586C588.963 107.776 586.818 105.909 584.454 103.437C582.09 100.965 580.395 98.8068 580.69 98.5943C580.986 98.3818 583.118 100.238 585.443 102.732Z" fill="#263238"/>
<path d="M608.438 90.542C609.902 93.4945 610.865 95.9773 610.557 96.1339C610.249 96.2905 608.784 93.9642 607.269 91.0341C605.753 88.1039 604.789 85.6211 605.136 85.4421C605.483 85.2632 606.935 87.6006 608.438 90.542Z" fill="#263238"/>
<path d="M634.309 84.2007C634.81 87.3881 634.965 90.0052 634.631 90.0499C634.297 90.0946 633.59 87.5447 633.038 84.3684C632.485 81.1922 632.331 78.5639 632.704 78.5192C633.076 78.4745 633.808 81.0132 634.309 84.2007Z" fill="#263238"/>
<path d="M661.209 84.1224C660.721 87.3098 660.066 89.8709 659.744 89.8374C659.423 89.8038 659.5 87.1756 659.937 83.9882C660.374 80.8007 661.029 78.2284 661.402 78.2732C661.774 78.3179 661.697 80.9238 661.209 84.1224Z" fill="#263238"/>
<path d="M687.145 90.3071C685.693 93.2708 684.267 95.5747 683.959 95.4629C683.651 95.3511 684.563 92.857 685.963 89.8709C687.363 86.8848 688.802 84.5921 689.149 84.7263C689.496 84.8605 688.609 87.3545 687.145 90.3071Z" fill="#263238"/>
<path d="M710.216 102.352C707.904 104.869 705.823 106.759 705.566 106.58C705.309 106.401 706.941 104.198 709.214 101.659C711.488 99.12 713.556 97.1852 713.865 97.4424C714.173 97.6996 712.49 99.847 710.216 102.352Z" fill="#263238"/>
<path d="M602.927 60.3007L602.529 60.4572L601.347 60.871C600.319 61.2513 598.777 61.7098 596.812 62.4592C591.274 64.4747 585.897 66.8099 580.716 69.4491C577.427 71.1043 573.946 73.0839 570.285 75.3095C566.624 77.5351 562.886 80.1297 559.148 83.0487C542.735 95.6433 530.199 111.609 522.678 129.495C520.918 133.589 519.595 137.593 518.452 141.339C517.308 145.086 516.537 148.665 515.959 151.93C515.021 157.09 514.476 162.298 514.328 167.521C514.225 169.377 514.328 170.809 514.328 171.782C514.328 172.252 514.328 172.609 514.328 172.9C514.34 173.027 514.34 173.154 514.328 173.28C514.311 173.158 514.311 173.034 514.328 172.911C514.328 172.632 514.328 172.263 514.328 171.793C514.328 170.82 514.187 169.388 514.251 167.532C514.297 162.29 514.773 157.057 515.677 151.874C516.216 148.586 517.051 145.019 518.092 141.227C519.253 137.197 520.651 133.222 522.28 129.317C529.764 111.311 542.374 95.2526 558.929 82.6461C562.693 79.7271 566.521 77.2107 570.144 74.918C573.766 72.6253 577.338 70.7241 580.665 69.0912C585.881 66.4792 591.302 64.192 596.889 62.2467C598.855 61.5309 600.435 61.1283 601.488 60.7592L602.696 60.4013C602.77 60.3629 602.847 60.3292 602.927 60.3007Z" fill="white"/>
<path d="M641.593 53.7693C640.272 54.0081 638.932 54.1613 637.585 54.2278C635.093 54.4514 631.676 54.7758 627.899 55.2007C624.122 55.6257 620.718 56.0731 618.252 56.4086C616.931 56.6451 615.591 56.7946 614.244 56.8559C615.521 56.4682 616.837 56.1837 618.175 56.006C620.628 55.5698 624.033 55.0554 627.809 54.6304C631.586 54.2054 635.042 53.937 637.546 53.814C638.891 53.6889 640.246 53.6739 641.593 53.7693Z" fill="white"/>
<g opacity="0.4">
<path opacity="0.4" d="M555.127 230.755C555.127 230.755 615.413 313.583 708.932 271.162C806.561 226.874 752.608 125.357 752.608 125.357C752.608 125.357 798.545 206.262 703.382 259.005C679.681 272.146 653.874 272.157 634.194 270.435C583.902 266.051 555.127 230.755 555.127 230.755Z" fill="black"/>
</g>
<path d="M680.529 116.041C681.108 130.896 680.593 145.767 678.988 160.564C678.397 165.921 677.703 171.334 675.327 176.311C672.95 181.288 668.904 185.851 663.2 187.954C657.496 190.056 650.2 189.184 646.23 185.068L680.529 116.041Z" fill="#E0E0E0"/>
<path d="M645.575 161.884L687.851 99.9028L662.339 169.88L649.301 173.269L645.575 161.884Z" fill="#A338A9"/>
<g opacity="0.4">
<path opacity="0.4" d="M687.852 99.9028L656.494 163.237L662.339 169.881L687.852 99.9028Z" fill="black"/>
</g>
<path d="M649.301 185.113C656.814 185.113 662.905 179.811 662.905 173.269C662.905 166.728 656.814 161.426 649.301 161.426C641.787 161.426 635.697 166.728 635.697 173.269C635.697 179.811 641.787 185.113 649.301 185.113Z" fill="#FAFAFA"/>
<path d="M662.905 173.269C662.783 172.307 662.598 171.351 662.352 170.406C661.564 167.855 659.819 165.607 657.394 164.02C655.612 162.853 653.523 162.093 651.317 161.81C649.111 161.527 646.859 161.729 644.766 162.399C643.561 162.77 642.43 163.302 641.413 163.975C640.33 164.659 639.381 165.49 638.6 166.436C636.93 168.418 636.03 170.811 636.03 173.269C636.03 175.727 636.93 178.121 638.6 180.103C640.16 181.945 642.303 183.352 644.766 184.151C646.524 184.713 648.397 184.948 650.266 184.842C652.134 184.736 653.956 184.291 655.616 183.536C657.275 182.781 658.735 181.732 659.902 180.458C661.069 179.183 661.916 177.709 662.391 176.132C662.639 175.188 662.823 174.232 662.943 173.269C663.023 174.25 662.923 175.235 662.648 176.188C661.946 178.855 660.202 181.227 657.715 182.899C656.01 184.051 654.016 184.837 651.896 185.191C649.457 185.597 646.937 185.427 644.599 184.699C643.329 184.318 642.137 183.763 641.067 183.055C639.931 182.34 638.933 181.472 638.112 180.483C636.343 178.41 635.388 175.896 635.388 173.314C635.388 170.732 636.343 168.218 638.112 166.145C638.937 165.159 639.934 164.291 641.067 163.573C642.142 162.875 643.333 162.325 644.599 161.94C646.936 161.207 649.457 161.036 651.896 161.448C654.486 161.881 656.878 162.956 658.785 164.543C660.692 166.13 662.033 168.162 662.648 170.395C662.904 171.336 662.991 172.305 662.905 173.269Z" fill="#263238"/>
<path d="M659.267 175.045C660.375 170.274 656.831 165.625 651.351 164.66C645.871 163.696 640.531 166.781 639.423 171.552C638.315 176.323 641.859 180.972 647.339 181.937C652.819 182.901 658.159 179.816 659.267 175.045Z" fill="#455A64"/>
<path d="M542.05 457.542H608.977L577.774 223.418L542.05 457.542Z" fill="#E0E0E0"/>
<path d="M212.73 223.418L169.156 460.304L540.983 464.52L577.774 223.418H212.73Z" fill="#FAFAFA"/>
<path d="M561.216 331.935H192.767L200.783 288.318H567.87L561.216 331.935Z" fill="#EBEBEB"/>
<path d="M561.241 331.969H192.728L200.757 288.352H567.909L561.241 331.969ZM192.806 331.913H561.19L567.831 288.296H200.821L192.806 331.913Z" fill="#263238"/>
<path d="M212.73 223.418L200.783 288.318H567.87L577.774 223.418H212.73Z" fill="#A338A9"/>
<path d="M212.781 223.418L577.826 223.149H578.172V223.451C567.42 294.033 555.217 374.076 542.319 458.615V458.872H537.849L169.464 458.783H169.105V458.503L212.781 223.418C212.421 225.364 195.824 316.188 169.786 458.615L169.516 458.336H537.759H541.934L541.613 458.582C554.523 374.043 566.752 294.011 577.582 223.429L577.877 223.72L212.781 223.418Z" fill="#263238"/>
<path d="M567.87 288.318C567.87 288.475 485.656 288.609 384.339 288.609C283.023 288.609 200.783 288.475 200.783 288.318C200.783 288.161 282.997 288.027 384.339 288.027C485.681 288.027 567.87 288.15 567.87 288.318Z" fill="#263238"/>
<path d="M561.216 331.935C561.216 332.103 478.565 332.226 376.644 332.226C274.724 332.226 192.06 332.103 192.06 331.935C192.06 331.768 274.686 331.645 376.644 331.645C478.603 331.645 561.216 331.779 561.216 331.935Z" fill="#263238"/>
<path d="M553.714 372.074C553.714 372.242 471.075 372.365 369.155 372.365C267.235 372.365 184.52 372.242 184.52 372.074C184.52 371.906 267.145 371.783 369.104 371.783C471.063 371.783 553.714 371.918 553.714 372.074Z" fill="#263238"/>
<path d="M546.224 412.213C546.224 412.37 463.573 412.504 361.653 412.504C259.733 412.504 177.069 412.37 177.069 412.213C177.069 412.057 259.695 411.923 361.653 411.923C463.612 411.923 546.224 412.057 546.224 412.213Z" fill="#263238"/>
<path d="M221.349 458.94C221.169 458.94 227.914 420.691 236.431 373.584C244.947 326.477 251.974 288.284 252.154 288.318C252.334 288.351 245.59 326.544 237.086 373.673C228.582 420.802 221.542 458.962 221.349 458.94Z" fill="#263238"/>
<path d="M278.167 458.94C277.974 458.94 284.731 420.691 293.235 373.584C301.74 326.477 308.779 288.284 308.972 288.318C309.164 288.351 302.408 326.544 293.891 373.673C285.374 420.802 278.296 458.962 278.167 458.94Z" fill="#263238"/>
<path d="M330.964 457.229C330.784 457.229 337.464 419.371 345.878 372.734C354.292 326.097 361.294 288.284 361.461 288.318C361.628 288.351 354.96 326.164 346.546 372.824C338.132 419.483 331.131 457.251 330.964 457.229Z" fill="#263238"/>
<path d="M383.183 458.582C383.003 458.582 389.735 420.411 398.226 373.405C406.717 326.399 413.744 288.284 413.923 288.318C414.103 288.351 407.372 326.466 398.881 373.495C390.39 420.523 383.363 458.604 383.183 458.582Z" fill="#263238"/>
<path d="M435.659 458.582C435.479 458.582 442.21 420.411 450.702 373.405C459.193 326.399 466.22 288.284 466.4 288.318C466.579 288.351 459.861 326.466 451.37 373.495C442.879 420.523 435.852 458.604 435.659 458.582Z" fill="#263238"/>
<path d="M488.096 458.783C487.917 458.783 494.661 420.568 503.165 373.484C511.669 326.399 518.696 288.24 518.888 288.273C519.081 288.307 512.324 326.477 503.82 373.573C495.316 420.668 488.276 458.85 488.096 458.783Z" fill="#263238"/>
<g opacity="0.2">
<path opacity="0.2" d="M455.082 291.36C461.402 288.922 465.359 283.196 466.99 277.347C468.622 271.497 468.365 265.391 468.609 259.363C468.853 253.335 469.675 247.128 473.208 241.949C475.302 238.896 478.243 236.357 480.569 233.416C482.894 230.475 484.615 226.896 483.754 223.351L444.214 223.53L455.082 291.36Z" fill="black"/>
</g>
<path d="M291.142 335.167C291.036 335.317 290.906 335.453 290.756 335.57L289.574 336.688C288.534 337.617 287.005 338.925 285.078 340.558C281.224 343.779 275.868 348.163 269.766 352.86C263.664 357.558 258.012 361.651 253.863 364.559C251.782 366.013 250.086 367.176 248.904 367.914L247.529 368.809C247.376 368.925 247.203 369.02 247.016 369.088C247.016 369.088 247.157 368.943 247.44 368.719L248.724 367.735L253.541 364.19C257.626 361.204 263.227 357.054 269.316 352.379C275.405 347.705 280.878 343.365 284.731 340.222L289.369 336.498L290.653 335.503C290.799 335.374 290.963 335.261 291.142 335.167Z" fill="#263238"/>
<path d="M288.174 369.536C287.629 369.121 287.118 368.672 286.646 368.193L282.625 364.458C279.156 361.248 274.506 356.931 269.381 352.156L255.995 339.965L251.936 336.263C251.423 335.823 250.947 335.352 250.51 334.854C251.092 335.228 251.633 335.648 252.128 336.107C253.13 336.934 254.569 338.153 256.329 339.675C259.849 342.717 264.653 346.978 269.856 351.764C275.058 356.551 279.683 360.957 282.972 364.19C284.616 365.8 285.939 367.12 286.825 368.037C287.327 368.499 287.779 369.001 288.174 369.536Z" fill="#263238"/>
<path d="M301.894 345.446C301.894 345.446 302.022 345.155 302.292 344.584C302.718 343.757 303.234 342.966 303.833 342.225C306.196 339.351 309.527 337.19 313.365 336.04C316.114 335.175 319.046 334.839 321.959 335.056C325.427 335.349 328.77 336.341 331.722 337.952C335.131 339.781 338.01 342.268 340.136 345.222C342.596 348.519 343.821 352.399 343.643 356.327C343.496 358.447 342.74 360.5 341.447 362.3C340.091 364.166 338.285 365.754 336.154 366.952C331.616 369.485 326.274 370.703 320.893 370.43C318.075 370.299 315.299 369.774 312.672 368.876C309.938 367.946 307.48 366.494 305.478 364.626C304.483 363.643 303.645 362.548 302.986 361.371C302.358 360.169 301.925 358.897 301.701 357.591C301.274 354.916 301.542 352.191 302.485 349.617C304.449 344.25 308.708 339.745 314.38 337.035C317.321 335.629 320.592 334.828 323.944 334.695C327.295 334.561 330.637 335.098 333.713 336.264C336.9 337.433 339.691 339.292 341.819 341.665C343.95 344.103 345.282 346.998 345.673 350.042C346.118 353.13 345.543 356.265 344.016 359.079C343.231 360.491 342.2 361.789 340.958 362.926C339.695 364.047 338.27 365.02 336.719 365.822C333.591 367.322 330.141 368.245 326.585 368.534C323.029 368.823 319.443 368.471 316.05 367.5C312.709 366.607 309.638 365.079 307.058 363.027C304.499 360.973 302.751 358.268 302.061 355.299C301.337 352.379 301.814 349.331 303.41 346.687C304.218 345.384 305.33 344.241 306.672 343.332C307.994 342.463 309.469 341.787 311.04 341.33C314.125 340.469 317.361 340.09 320.597 340.212C323.749 340.231 326.884 340.607 329.924 341.33C332.929 342.018 335.706 343.313 338.03 345.11C340.255 346.918 341.774 349.289 342.371 351.887C342.961 354.399 342.789 357.001 341.87 359.437C340.961 361.785 339.425 363.913 337.387 365.644C333.518 368.938 328.393 370.88 322.987 371.101C320.457 371.218 317.925 370.898 315.536 370.162C313.243 369.446 311.181 368.26 309.524 366.706C307.956 365.223 306.769 363.465 306.043 361.55C305.327 359.755 305.009 357.857 305.105 355.958C305.288 352.442 306.9 349.097 309.653 346.519C312.006 344.277 314.984 342.602 318.298 341.654C321.08 340.865 324.028 340.621 326.931 340.938C330.942 341.372 334.755 342.71 337.991 344.819C338.831 345.357 339.626 345.948 340.368 346.586C340.869 347.022 341.113 347.257 341.113 347.257C341.113 347.257 340.83 347.045 340.329 346.631C339.566 346.014 338.759 345.439 337.914 344.909C334.672 342.862 330.882 341.572 326.905 341.162C323.769 340.846 320.592 341.189 317.639 342.162C314.687 343.135 312.045 344.709 309.935 346.754C307.254 349.276 305.692 352.547 305.529 355.981C305.442 357.843 305.76 359.702 306.467 361.461C307.183 363.318 308.343 365.022 309.871 366.46C311.481 367.966 313.48 369.116 315.703 369.815C318.033 370.52 320.498 370.824 322.961 370.71C328.238 370.483 333.234 368.577 337.002 365.353C338.97 363.677 340.454 361.619 341.331 359.347C342.21 356.993 342.37 354.48 341.793 352.055C341.215 349.56 339.755 347.284 337.618 345.546C335.358 343.816 332.667 342.568 329.757 341.9C326.767 341.188 323.684 340.812 320.585 340.782C317.425 340.678 314.268 341.056 311.258 341.9C308.188 342.718 305.589 344.521 303.988 346.944C302.467 349.473 302.012 352.385 302.703 355.175C303.369 358.028 305.055 360.624 307.52 362.59C310.02 364.601 313.004 366.099 316.256 366.974C319.558 367.92 323.048 368.264 326.509 367.983C329.971 367.702 333.328 366.803 336.372 365.342C337.876 364.573 339.254 363.633 340.47 362.546C341.663 361.454 342.655 360.21 343.412 358.855C344.89 356.14 345.447 353.113 345.018 350.132C344.65 347.192 343.377 344.394 341.331 342.034C339.273 339.741 336.575 337.943 333.495 336.812C330.51 335.676 327.266 335.152 324.012 335.28C320.759 335.408 317.582 336.185 314.727 337.55C309.214 340.192 305.076 344.576 303.165 349.796C302.25 352.294 301.982 354.937 302.382 357.535C302.613 358.797 303.045 360.024 303.666 361.181C304.302 362.311 305.106 363.364 306.056 364.313C307.993 366.121 310.373 367.528 313.018 368.428C315.587 369.313 318.302 369.834 321.06 369.972C326.326 370.252 331.559 369.078 336.013 366.617C338.071 365.519 339.805 364.017 341.075 362.23C342.344 360.443 343.114 358.421 343.322 356.327C343.501 352.485 342.313 348.688 339.918 345.457C337.839 342.541 335.017 340.08 331.671 338.266C328.772 336.668 325.487 335.677 322.075 335.369C319.206 335.132 316.312 335.445 313.596 336.286C309.793 337.405 306.475 339.513 304.09 342.325C303.475 343.055 302.942 343.834 302.497 344.652C302.061 345.166 301.894 345.446 301.894 345.446Z" fill="#A338A9"/>
<path d="M336.693 376.324C336.809 376.447 326.622 384.03 313.93 393.268C301.239 402.506 290.808 409.876 290.731 409.753C290.653 409.63 300.802 402.047 313.494 392.82C326.185 383.594 336.578 376.201 336.693 376.324Z" fill="#263238"/>
<path d="M338.916 408.757C338.311 408.448 337.74 408.092 337.207 407.695L332.686 404.631C328.896 402.014 323.693 398.368 317.964 394.319C312.235 390.271 307.083 386.58 303.371 383.885L298.99 380.664C298.435 380.295 297.919 379.883 297.449 379.433C298.051 379.746 298.622 380.102 299.157 380.496L303.666 383.56C307.456 386.177 312.659 389.823 318.388 393.872C324.117 397.92 329.269 401.611 332.994 404.306L337.362 407.516C337.913 407.897 338.433 408.312 338.916 408.757Z" fill="#263238"/>
<path d="M443.932 376.76C444.035 376.883 434.297 383.381 422.158 391.299C410.018 399.218 400.101 405.469 399.986 405.335C399.87 405.201 409.62 398.714 421.76 390.796C433.899 382.878 443.816 376.626 443.932 376.76Z" fill="#263238"/>
<path d="M447.709 404.273C447.619 404.407 437.265 398.826 424.586 391.791C411.907 384.757 401.746 378.963 401.836 378.818C401.925 378.673 412.279 384.276 424.958 391.299C437.637 398.323 447.863 404.139 447.709 404.273Z" fill="#263238"/>
<path d="M338.364 458.593C338.222 458.481 348.345 449.243 360.96 437.981C373.574 426.719 383.915 417.649 384.082 417.761C384.249 417.872 374.101 427.11 361.486 438.384C348.872 449.657 338.492 458.705 338.364 458.593Z" fill="#A338A9"/>
<path d="M381.154 458.582C381.154 458.582 380.987 458.459 380.73 458.19L379.651 457.072C378.649 455.954 377.313 454.511 375.681 452.744C372.328 449.098 367.575 444.143 362.064 438.876C356.553 433.608 351.325 429.034 347.471 425.791L342.898 421.876L341.614 420.825C341.465 420.707 341.332 420.576 341.215 420.433C341.215 420.433 341.408 420.523 341.703 420.735L342.988 421.708C344.131 422.558 345.75 423.822 347.728 425.41C351.659 428.587 356.952 433.127 362.488 438.406C368.025 443.685 372.765 448.695 375.977 452.408C377.621 454.265 378.918 455.763 379.83 456.882L380.82 458.112C380.953 458.256 381.065 458.414 381.154 458.582Z" fill="#A338A9"/>
<path d="M275.996 411.542C275.996 411.542 276.407 439.021 268.443 455.473L219.898 448.27C219.898 448.27 234.516 422.234 230.534 407.762L275.996 411.542Z" fill="#EBEBEB"/>
<path d="M275.983 410.513C275.983 410.513 269.894 444.244 266.169 454.309L217.919 445.966C217.919 445.966 227.849 413.354 227.721 404.273L275.983 410.513Z" fill="#A338A9"/>
<path d="M232.615 419.393C232.615 419.55 239.783 421.004 248.711 422.637C257.639 424.269 264.897 425.466 264.936 425.321C264.974 425.175 257.768 423.71 248.84 422.077C239.912 420.445 232.654 419.237 232.615 419.393Z" fill="white"/>
<path d="M231.382 426.54C231.382 426.697 238.55 428.139 247.478 429.783C256.406 431.427 263.664 432.613 263.703 432.468C263.741 432.322 256.535 430.857 247.607 429.224C238.679 427.591 231.421 426.35 231.382 426.54Z" fill="white"/>
<path d="M238.473 434.626C239.296 434.937 240.158 435.163 241.042 435.297C242.699 435.644 244.999 436.102 247.529 436.572C250.06 437.041 252.385 437.422 254.068 437.69C254.967 437.886 255.89 437.984 256.817 437.981C255.963 437.668 255.071 437.439 254.158 437.299C252.514 436.941 250.214 436.482 247.671 436.024C245.127 435.565 242.815 435.163 241.145 434.905C240.271 434.719 239.373 434.625 238.473 434.626Z" fill="white"/>
<path d="M505.67 334.385C505.67 334.385 510.641 361.159 505.606 378.237L456.996 377.331C456.996 377.331 466.939 350.064 460.632 336.431L505.67 334.385Z" fill="#EBEBEB"/>
<path d="M505.451 333.378C505.451 333.378 505.13 367.053 503.165 377.331L454.645 375.329C454.645 375.329 458.897 342.224 457.215 333.378H505.451Z" fill="#455A64"/>
<path d="M464.1 348.364C464.1 348.521 471.397 348.655 480.402 348.666C489.407 348.678 496.716 348.566 496.716 348.409C496.716 348.253 489.42 348.118 480.402 348.107C471.384 348.096 464.1 348.208 464.1 348.364Z" fill="white"/>
<path d="M464.562 355.489C464.562 355.645 471.859 355.779 480.864 355.791C489.869 355.802 497.178 355.69 497.178 355.533C497.178 355.377 489.882 355.243 480.864 355.231C471.846 355.22 464.562 355.332 464.562 355.489Z" fill="white"/>
<path d="M473.259 362.053C474.154 362.221 475.068 362.292 475.983 362.266C477.665 362.266 479.991 362.344 482.56 362.355C485.129 362.367 487.441 362.355 489.124 362.277C490.037 362.309 490.952 362.245 491.847 362.087C490.953 361.921 490.038 361.853 489.124 361.886C487.441 361.83 485.129 361.796 482.56 361.785C479.991 361.774 477.665 361.785 475.983 361.863C475.069 361.831 474.155 361.895 473.259 362.053Z" fill="white"/>
<path d="M515.947 257.182C506.877 257.182 497.744 252.228 492.939 244.432C488.269 236.67 486.821 227.741 488.841 219.157C491.501 207.973 500.005 198.802 510.513 195.872C519.441 193.378 535.395 194.754 542.923 205.725C546.509 211.09 548.29 217.225 548.062 223.429C548.028 223.87 547.895 224.3 547.67 224.696C547.445 225.092 547.133 225.445 546.751 225.736C546.369 226.027 545.926 226.249 545.445 226.391C544.965 226.532 544.457 226.59 543.951 226.561C542.929 226.501 541.976 226.091 541.301 225.42C540.626 224.749 540.286 223.872 540.354 222.982C540.423 218.138 538.995 213.367 536.218 209.17C530.411 200.726 517.681 200.894 512.774 202.258C503.781 204.763 498.026 213.229 496.292 220.51C494.627 227.559 495.812 234.892 499.645 241.267C503.435 247.419 511.104 251.243 517.899 250.338C518.902 250.216 519.92 250.443 520.732 250.97C521.545 251.496 522.086 252.28 522.24 253.152C522.393 254.023 522.147 254.913 521.553 255.627C520.96 256.341 520.067 256.824 519.068 256.97C518.035 257.109 516.992 257.18 515.947 257.182Z" fill="#263238"/>
<path d="M267.145 257.183C258.063 257.183 248.943 252.228 244.138 244.433C239.463 236.672 238.011 227.743 240.027 219.157C242.276 209.718 249.88 198.847 261.866 195.85C267.644 194.487 273.771 194.758 279.362 196.622L276.587 202.885C272.563 201.554 268.163 201.346 263.998 202.292C255.16 204.529 249.405 213.051 247.632 220.511C245.967 227.559 247.152 234.893 250.985 241.268C254.775 247.43 262.457 251.244 269.239 250.338L270.408 256.97C269.329 257.116 268.238 257.187 267.145 257.183Z" fill="#263238"/>
<path d="M512.774 223.597L509.228 240.496H561.396L566.033 223.764L512.774 223.597Z" fill="#A338A9"/>
<path d="M280.364 254.509C280.366 255.939 279.882 257.337 278.971 258.527C278.06 259.717 276.764 260.645 275.247 261.193C273.73 261.741 272.06 261.885 270.45 261.607C268.839 261.328 267.359 260.64 266.197 259.629C265.036 258.618 264.245 257.329 263.926 255.927C263.606 254.524 263.771 253.071 264.401 251.75C265.031 250.43 266.096 249.301 267.463 248.508C268.83 247.715 270.436 247.293 272.078 247.295C274.275 247.298 276.38 248.059 277.933 249.411C279.486 250.764 280.36 252.597 280.364 254.509Z" fill="#263238"/>
<path d="M528.947 254.509C528.949 255.939 528.464 257.337 527.553 258.527C526.643 259.717 525.347 260.645 523.83 261.193C522.313 261.741 520.643 261.885 519.032 261.607C517.421 261.328 515.942 260.64 514.78 259.629C513.619 258.618 512.828 257.329 512.508 255.927C512.189 254.524 512.354 253.071 512.984 251.75C513.613 250.43 514.679 249.301 516.046 248.508C517.412 247.715 519.019 247.293 520.661 247.295C522.857 247.298 524.963 248.059 526.516 249.411C528.069 250.764 528.943 252.597 528.947 254.509Z" fill="#263238"/>
<path d="M392.047 114.677L378.404 159.726L331.311 164.132V171.402L397.481 173.426L409.916 122.886L392.047 114.677Z" fill="#FFBE9D"/>
<path d="M411.894 174.622C411.894 174.622 338.312 171.569 317.36 185.806C296.409 200.044 306.557 223.418 306.557 223.418L424.971 223.15L435.428 170.887L411.894 174.622Z" fill="#263238"/>
<path d="M424.419 209.103C424.062 209.11 423.705 209.088 423.353 209.036C422.659 208.968 421.644 208.879 420.334 208.734C417.765 208.454 413.911 207.984 409.286 207.302C397.145 205.504 385.134 203.088 373.317 200.066C366.406 198.288 359.868 196.498 353.83 195.19C348.5 193.989 343.05 193.24 337.554 192.953C333.846 192.772 330.127 192.96 326.468 193.512C325.184 193.646 324.194 193.937 323.501 194.038C323.158 194.111 322.811 194.167 322.46 194.205C322.787 194.083 323.127 193.989 323.475 193.926C324.441 193.664 325.423 193.451 326.417 193.288C330.084 192.643 333.829 192.392 337.567 192.539C343.142 192.77 348.676 193.486 354.087 194.675C360.163 195.95 366.715 197.74 373.6 199.518C385.353 202.514 397.277 204.974 409.325 206.888C413.962 207.626 417.726 208.152 420.334 208.51L423.34 208.924C423.705 208.957 424.065 209.017 424.419 209.103Z" fill="#455A64"/>
<path d="M356.027 194.843C353.982 193.375 351.804 192.055 349.514 190.895C347.113 189.917 344.626 189.11 342.076 188.48C342.867 188.42 343.664 188.488 344.427 188.681C346.305 189.033 348.12 189.605 349.822 190.381C351.522 191.161 353.094 192.135 354.498 193.277C355.114 193.713 355.633 194.243 356.027 194.843Z" fill="#455A64"/>
<path d="M419.692 313.873L420.681 340.793L414.463 362.289C414.362 362.657 414.35 363.039 414.426 363.412C414.502 363.784 414.666 364.139 414.907 364.454C415.149 364.769 415.462 365.037 415.827 365.242C416.193 365.446 416.603 365.583 417.032 365.644C417.529 365.723 418.04 365.697 418.523 365.568C419.006 365.44 419.446 365.213 419.807 364.906C424.483 360.924 441.645 346.206 441.427 344.249C441.196 342.012 442.545 315.775 442.545 315.775L419.692 313.873Z" fill="#A338A9"/>
<g opacity="0.6">
<path opacity="0.6" d="M416.917 365.688L441.324 342.471V343.589C441.339 344.577 440.947 345.537 440.219 346.296C438.28 348.32 432.769 353.811 419.807 364.928C419.437 365.247 418.981 365.481 418.481 365.61C417.981 365.739 417.453 365.758 416.942 365.666L416.917 365.688Z" fill="white"/>
</g>
<g opacity="0.6">
<path opacity="0.6" d="M434.85 333.826C434.458 334.075 434.189 334.444 434.096 334.859C434.003 335.273 434.093 335.703 434.349 336.062C434.619 336.397 435.026 336.63 435.487 336.713C435.947 336.796 436.427 336.724 436.828 336.51C437.231 336.25 437.507 335.868 437.602 335.439C437.697 335.011 437.604 334.567 437.342 334.195C437.022 333.867 436.569 333.66 436.077 333.619C435.586 333.577 435.095 333.703 434.708 333.971" fill="white"/>
</g>
<path d="M423.867 353.856C423.687 353.934 422.967 352.536 421.13 351.787C419.994 351.398 418.78 351.208 417.559 351.227C417.559 351.16 417.919 350.948 418.638 350.847C419.591 350.746 420.558 350.886 421.423 351.248C422.288 351.611 423.016 352.182 423.52 352.894C423.879 353.442 423.931 353.833 423.867 353.856Z" fill="#263238"/>
<path d="M421.695 357.491C420.807 357.068 419.889 356.695 418.946 356.372C417.943 356.218 416.931 356.114 415.915 356.059C416.387 355.795 416.925 355.633 417.484 355.589C418.043 355.544 418.607 355.617 419.126 355.802C420.95 356.227 421.85 357.412 421.695 357.491Z" fill="#263238"/>
<path d="M427.913 349.181C426.6 348.428 425.227 347.759 423.802 347.179C422.298 346.779 420.76 346.48 419.203 346.284C420.821 345.989 422.503 346.106 424.047 346.619C425.591 347.133 426.933 348.022 427.913 349.181Z" fill="#263238"/>
<path d="M428.401 340.994C428.324 341.162 426.603 340.547 424.38 340.502C422.158 340.458 420.398 340.927 420.321 340.76C421.567 340.162 422.976 339.868 424.398 339.909C425.82 339.95 427.203 340.325 428.401 340.994Z" fill="#263238"/>
<path d="M428.337 333.087C426.984 332.717 425.579 332.51 424.162 332.472C422.757 332.614 421.382 332.927 420.077 333.401C420.077 333.345 420.36 332.998 421.066 332.64C422.012 332.175 423.07 331.911 424.155 331.87C425.24 331.83 426.321 332.013 427.309 332.405C428.016 332.707 428.388 333.02 428.337 333.087Z" fill="#263238"/>
<path d="M424.2 330.962C424.12 330.627 424.12 330.28 424.2 329.945C424.297 329.01 424.607 328.101 425.113 327.272C425.413 326.633 425.952 326.102 426.641 325.762C426.88 325.669 427.146 325.641 427.403 325.683C427.66 325.725 427.896 325.835 428.08 325.997C428.411 326.333 428.589 326.762 428.581 327.205C428.52 328.106 428.103 328.961 427.401 329.626C426.699 330.29 425.754 330.723 424.727 330.85C423.702 330.95 422.667 330.782 421.752 330.367C420.837 329.953 420.084 329.312 419.589 328.524C419.464 328.326 419.39 328.106 419.372 327.88C419.355 327.654 419.393 327.427 419.486 327.216C419.606 327.016 419.793 326.852 420.023 326.746C420.252 326.64 420.513 326.597 420.771 326.623C421.534 326.765 422.242 327.077 422.826 327.529C423.669 328.11 424.39 328.814 424.958 329.609C425.185 329.89 425.351 330.204 425.446 330.537C424.63 329.527 423.648 328.626 422.53 327.864C422.009 327.492 421.392 327.235 420.732 327.115C420.589 327.094 420.443 327.113 420.314 327.169C420.184 327.226 420.079 327.316 420.013 327.428C419.967 327.572 419.955 327.722 419.977 327.87C419.999 328.018 420.055 328.161 420.141 328.289C420.592 328.956 421.252 329.495 422.045 329.844C422.837 330.193 423.728 330.337 424.611 330.258C425.488 330.16 426.299 329.804 426.909 329.248C427.519 328.692 427.892 327.971 427.964 327.205C427.981 326.898 427.872 326.597 427.656 326.355C427.559 326.259 427.429 326.193 427.285 326.167C427.142 326.141 426.993 326.156 426.86 326.209C426.296 326.509 425.848 326.949 425.575 327.473C424.892 328.559 424.427 329.739 424.2 330.962Z" fill="#263238"/>
<path d="M435.364 170.887C435.364 170.887 403.544 223.261 403.107 232.399C402.671 241.536 403.107 325.762 403.107 325.762H452.359C453.643 325.762 461.03 287.815 459.527 279.08C458.024 270.346 452.719 223.396 452.719 223.396H481.057C481.057 223.396 488.829 216.16 488.546 206.978C488.379 201.911 484.577 191.555 480.838 186.064C478.411 182.541 462.854 164.098 462.854 164.098L435.364 170.887Z" fill="#263238"/>
<path d="M433.231 174.432C433.197 174.537 433.149 174.638 433.09 174.734C432.974 174.958 432.82 175.238 432.627 175.584L430.778 178.85C429.943 180.27 428.954 181.993 427.797 183.995L425.948 187.204L424.008 190.862L414.463 208.856C412.652 212.212 410.751 215.802 408.772 219.481L405.779 225.073C404.812 227.007 404.08 229.023 403.596 231.09C403.108 233.162 402.854 235.271 402.838 237.387C402.761 239.478 402.709 241.547 402.671 243.571C402.671 247.642 402.581 251.557 402.594 255.292C402.594 262.763 402.696 269.495 402.786 275.143C402.876 280.791 402.953 285.321 403.017 288.564C403.017 290.107 403.017 291.326 403.017 292.199C403.017 292.59 403.017 292.903 403.017 293.149C403.017 293.395 403.017 293.474 403.017 293.474C402.996 293.366 402.996 293.257 403.017 293.149C403.017 292.903 403.017 292.59 403.017 292.21C403.017 291.326 402.915 290.119 402.838 288.564C402.709 285.41 402.542 280.836 402.401 275.143C402.26 269.451 402.105 262.774 402.067 255.292C402.067 251.557 402.067 247.631 402.067 243.571C402.067 241.536 402.144 239.467 402.234 237.364C402.246 235.215 402.5 233.073 402.992 230.967C403.489 228.862 404.238 226.808 405.227 224.838L408.233 219.246L413.962 208.644L423.7 190.694L425.678 187.048C426.359 185.929 426.962 184.811 427.579 183.86L430.649 178.761C431.484 177.385 432.152 176.311 432.615 175.54C432.833 175.204 433.013 174.936 433.141 174.712C433.27 174.488 433.218 174.421 433.231 174.432Z" fill="#455A64"/>
<path d="M422.929 192.271C421.907 190.142 421.049 187.956 420.36 185.728C419.458 183.559 418.724 181.34 418.163 179.085C419.361 181.152 420.308 183.322 420.989 185.56C421.898 187.733 422.548 189.982 422.929 192.271Z" fill="#455A64"/>
<path d="M459.63 277.436C459.548 277.246 459.496 277.046 459.476 276.844C459.416 276.389 459.326 275.818 459.206 275.132C458.975 273.555 458.679 271.408 458.307 268.802C457.6 263.389 456.649 256.041 455.596 247.922C454.543 239.802 453.682 232.365 453.155 227.008C452.911 224.391 452.706 222.244 452.552 220.667C452.552 219.962 452.449 219.392 452.41 218.933C452.394 218.732 452.394 218.53 452.41 218.329C452.491 218.52 452.539 218.719 452.552 218.922C452.616 219.381 452.706 219.951 452.809 220.644C453.014 222.221 453.297 224.357 453.631 226.974C454.312 232.387 455.236 239.746 456.2 247.866C457.163 255.986 458.075 263.333 458.769 268.758C459.052 271.375 459.296 273.522 459.463 275.099C459.527 275.792 459.578 276.374 459.617 276.832C459.641 277.033 459.645 277.235 459.63 277.436Z" fill="#455A64"/>
<path d="M447.118 30.6185C446.36 26.145 450.766 21.8392 455.853 21.3135C460.94 20.7879 466.066 23.5503 468.404 27.5877C469.492 29.6181 470.087 31.822 470.154 34.0618C470.22 36.3016 469.755 38.5292 468.789 40.6057C467.504 43.4353 465.128 46.2983 461.672 46.522C458.217 46.7457 455.57 44.453 453.284 42.3392" fill="#263238"/>
<path d="M410.956 52.8075C400.679 33.202 425.087 23.349 438.357 26.6147C450.843 29.6903 456.174 35.1033 458.23 42.3729C460.481 49.6662 460.031 57.392 456.945 64.4499C455.326 67.8722 452.423 71.3392 448.21 71.7642" fill="#263238"/>
<path d="M446.321 37.4967C447.378 37.5921 448.355 38.0306 449.058 38.7249C449.76 39.4192 450.136 40.3184 450.111 41.2433L447.709 91.1459C447.619 97.0399 437.74 100.373 430.482 100.238C423.173 100.104 422.929 96.9728 422.775 91.3696C422.608 82.0087 422.608 78.4858 422.608 78.5417C422.608 78.5976 413.358 77.1996 411.444 66.6979C410.481 61.475 410.789 52.9081 411.29 45.907C411.753 39.6105 416.544 31.8712 423.764 32.4863L446.321 37.4967Z" fill="#FFBE9D"/>
<path d="M416.018 51.8791C416.011 52.2313 416.163 52.5717 416.442 52.827C416.721 53.0822 417.103 53.2319 417.508 53.2436C417.705 53.2572 417.903 53.2363 418.091 53.182C418.279 53.1277 418.452 53.0412 418.6 52.9275C418.749 52.8138 418.87 52.6753 418.956 52.5202C419.042 52.3651 419.091 52.1965 419.101 52.0245C419.104 51.6732 418.951 51.3343 418.673 51.0797C418.395 50.8251 418.014 50.6746 417.611 50.6601C417.413 50.6464 417.215 50.6673 417.027 50.7216C416.84 50.7759 416.666 50.8625 416.518 50.9762C416.369 51.0898 416.248 51.2284 416.162 51.3835C416.077 51.5386 416.027 51.7071 416.018 51.8791Z" fill="#263238"/>
<path d="M413.461 50.3693C413.654 50.537 414.836 49.7877 416.493 49.7877C418.15 49.7877 419.383 50.5146 419.563 50.3357C419.743 50.1568 419.46 49.9443 418.921 49.6088C418.2 49.1753 417.343 48.945 416.467 48.949C415.602 48.9417 414.758 49.1813 414.065 49.6312C413.551 49.9667 413.371 50.291 413.461 50.3693Z" fill="#263238"/>
<path d="M432.293 51.8792C432.289 52.2232 432.435 52.5558 432.703 52.8092C432.97 53.0627 433.338 53.218 433.732 53.2436C433.929 53.2572 434.128 53.2363 434.315 53.182C434.503 53.1277 434.676 53.0412 434.825 52.9275C434.973 52.8138 435.094 52.6753 435.18 52.5202C435.266 52.3651 435.315 52.1965 435.325 52.0246C435.329 51.6732 435.175 51.3344 434.897 51.0798C434.619 50.8251 434.238 50.6747 433.835 50.6602C433.445 50.645 433.064 50.7646 432.775 50.993C432.487 51.2214 432.313 51.5399 432.293 51.8792Z" fill="#263238"/>
<path d="M429.878 50.6377C430.071 50.8055 431.24 50.0562 432.897 50.0562C434.554 50.0562 435.788 50.7831 435.967 50.6154C436.147 50.4476 435.865 50.2128 435.325 49.8773C434.605 49.4418 433.748 49.2113 432.872 49.2175C432.008 49.2174 431.167 49.4563 430.469 49.8997C429.878 50.2352 429.737 50.5706 429.878 50.6377Z" fill="#263238"/>
<path d="M423.789 61.3855C422.913 61.1504 422.007 61.0077 421.092 60.9605C420.668 60.9605 420.257 60.8487 420.192 60.6026C420.152 60.2134 420.251 59.8229 420.475 59.4843C420.873 58.5895 421.284 57.6501 421.76 56.6659C422.924 54.2781 423.869 51.8137 424.586 49.2958C423.195 51.5944 422.022 53.9883 421.079 56.4534L419.871 59.2941C419.606 59.7417 419.529 60.2561 419.653 60.748C419.717 60.878 419.813 60.9938 419.936 61.0868C420.058 61.1797 420.203 61.2474 420.359 61.2849C420.594 61.339 420.836 61.369 421.079 61.3743C421.978 61.4756 422.889 61.4793 423.789 61.3855Z" fill="#263238"/>
<path d="M422.646 78.5304C428.349 78.6209 433.968 77.3233 438.87 74.7838C438.87 74.7838 434.94 82.0086 422.864 81.0244L422.646 78.5304Z" fill="#EB996E"/>
<path d="M424.496 64.8748C424.814 64.5302 425.227 64.2612 425.696 64.093C426.166 63.9248 426.676 63.8629 427.181 63.913C427.55 63.9399 427.909 64.0321 428.236 64.1841C428.563 64.336 428.851 64.5444 429.082 64.7966C429.303 65.0378 429.434 65.3322 429.457 65.6402C429.48 65.9481 429.394 66.2548 429.21 66.5189C428.944 66.7804 428.593 66.9661 428.204 67.0518C427.814 67.1376 427.404 67.1195 427.027 66.9999C426.236 66.7574 425.51 66.3768 424.894 65.8814C424.708 65.7658 424.547 65.6219 424.419 65.4564C424.359 65.3765 424.327 65.2833 424.327 65.188C424.327 65.0927 424.359 64.9995 424.419 64.9196" fill="#EB996E"/>
<path d="M428.696 62.392C428.427 62.392 428.414 63.9466 426.872 65.065C425.331 66.1834 423.404 66.0045 423.391 66.1834C423.378 66.3623 423.815 66.4854 424.676 66.5077C425.736 66.5183 426.768 66.2058 427.592 65.6242C428.374 65.0637 428.88 64.263 429.005 63.3874C429.018 62.7723 428.812 62.3808 428.696 62.392Z" fill="#263238"/>
<path d="M429.082 48.099C429.249 48.4904 430.919 48.3003 432.871 48.5128C434.824 48.7253 436.404 49.1726 436.661 48.8259C436.777 48.6582 436.494 48.2891 435.865 47.8977C435.018 47.4237 434.053 47.1323 433.051 47.0477C432.053 46.9392 431.039 47.0428 430.097 47.3497C429.377 47.5957 429.018 47.9089 429.082 48.099Z" fill="#263238"/>
<path d="M414.078 46.1642C414.373 46.4997 415.516 46.1642 416.904 46.1642C418.291 46.1642 419.473 46.3878 419.717 46.0412C419.833 45.8734 419.717 45.5379 419.139 45.236C418.462 44.8486 417.662 44.6569 416.852 44.688C416.043 44.7026 415.259 44.9329 414.604 45.3478C414.116 45.6721 413.949 46.0076 414.078 46.1642Z" fill="#263238"/>
<path d="M429.789 29.0417C425.694 29.2235 421.718 30.3005 418.227 32.1732C416.27 33.0562 414.532 34.2663 413.113 35.7343C411.693 37.2024 410.62 38.8995 409.954 40.7288C409.785 41.1093 409.707 41.5159 409.725 41.9236C409.742 42.3313 409.856 42.7315 410.057 43.0998C410.439 43.5211 410.978 43.813 411.58 43.9253C412.183 44.0376 412.812 43.9632 413.359 43.715C414.448 43.1995 415.374 42.4581 416.056 41.5565C416.328 42.5424 416.976 43.4189 417.895 44.0421C418.813 44.6653 419.948 44.9984 421.112 44.9867C422.277 44.975 423.402 44.6192 424.304 43.9777C425.206 43.3362 425.831 42.447 426.076 41.4558C426.168 42.4633 426.703 43.4012 427.569 44.0741C428.435 44.747 429.566 45.1031 430.726 45.0682C431.884 44.981 432.987 44.601 433.9 43.9751C434.813 43.3492 435.496 42.5046 435.865 41.5453C436.148 43.3638 436.87 45.1095 437.984 46.6675C438.555 47.4408 439.385 48.0424 440.361 48.3906C441.338 48.7388 442.414 48.8166 443.444 48.6135C443.012 50.1597 443.039 51.776 443.521 53.3108C444.163 54.787 446.72 80.0515 448.441 79.537C450.162 79.0226 450.098 53.2548 450.483 51.7562C451.338 48.8815 451.77 45.9239 451.768 42.9544C451.883 39.8954 450.744 36.9005 448.555 34.5053C446.367 32.1101 443.271 30.4708 439.821 29.8804C436.378 29.1927 432.843 28.9106 429.313 29.0417" fill="#263238"/>
<path d="M453.965 75.0522C453.965 75.0522 453.849 75.1193 453.592 75.1976C453.231 75.3127 452.856 75.3915 452.475 75.4325C450.688 75.63 448.874 75.3816 447.243 74.7164C445.613 74.0511 444.233 72.9963 443.264 71.6747C441.95 69.6837 441.397 67.381 441.684 65.0985C441.877 62.694 442.519 60.5019 442.814 58.4888C443.105 56.7017 443.285 54.9022 443.354 53.0982C443.354 51.5548 443.354 50.3134 443.354 49.441C443.298 48.995 443.298 48.545 443.354 48.0989C443.507 48.5388 443.597 48.9932 443.624 49.4522C443.764 50.6749 443.833 51.903 443.829 53.1317C443.827 54.9527 443.694 56.7718 443.431 58.5783C443.148 60.6361 442.545 62.8394 442.352 65.1544C442.077 67.3214 442.58 69.5092 443.791 71.4175C444.846 72.9367 446.47 74.0937 448.39 74.6943C449.679 75.1225 451.059 75.3056 452.436 75.2312C453.425 75.1753 453.952 74.9963 453.965 75.0522Z" fill="#263238"/>
<path d="M425.536 27.6884C426.004 28.4541 426.221 29.3166 426.166 30.1824C426.211 32.3016 425.29 34.3501 423.605 35.88C421.92 37.4099 419.608 38.2967 417.174 38.3466C416.186 38.4291 415.19 38.2744 414.296 37.8993C414.296 37.7986 415.401 38.067 417.148 37.8993C419.431 37.7643 421.575 36.8951 423.163 35.4607C424.752 34.0263 425.671 32.129 425.742 30.1376C425.78 28.6502 425.421 27.7107 425.536 27.6884Z" fill="#455A64"/>
<path d="M427.309 40.0578C427.373 40.0578 427.219 40.7736 426.294 41.5565C425.68 42.0372 424.961 42.4049 424.179 42.6374C423.398 42.87 422.571 42.9626 421.747 42.9097C420.132 42.7843 418.576 42.3199 417.212 41.5565C416.172 40.9861 415.607 40.5499 415.658 40.4381C416.28 40.6085 416.875 40.8452 417.431 41.1427C418.786 41.7559 420.265 42.1357 421.785 42.2611C423.294 42.3385 424.785 41.9416 425.986 41.1427C426.924 40.6282 427.232 40.013 427.309 40.0578Z" fill="#455A64"/>
<path d="M456.405 36.8481C456.491 37.8109 456.413 38.7794 456.174 39.7223C455.811 42.0583 454.796 44.2814 453.219 46.1978C452.396 47.1481 451.358 47.9419 450.17 48.5304C448.981 49.1189 447.667 49.4897 446.308 49.62C445.482 49.6848 444.65 49.6127 443.855 49.4076C443.302 49.2622 443.033 49.1168 443.045 49.0832C444.105 49.2483 445.185 49.2896 446.257 49.2062C448.812 48.8451 451.111 47.6442 452.68 45.8511C454.185 43.9981 455.214 41.8851 455.699 39.6552C455.867 38.7077 456.103 37.7702 456.405 36.8481Z" fill="#455A64"/>
<path d="M458.615 41.9366C458.733 42.2242 458.798 42.5261 458.808 42.8314C458.894 43.6455 458.916 44.4639 458.872 45.2806C458.804 48.0327 457.673 50.6845 455.66 52.8074C454.524 53.9747 453.046 54.852 451.383 55.3462C450.019 55.7347 448.564 55.8117 447.156 55.5699C446.211 55.4127 445.314 55.0851 444.523 54.6081C443.983 54.2614 443.752 54.0041 443.778 53.9818C444.832 54.5655 446.005 54.968 447.233 55.1673C448.559 55.3331 449.911 55.2219 451.177 54.8429C452.72 54.3472 454.091 53.5155 455.159 52.4272C457.067 50.3829 458.202 47.875 458.409 45.2471C458.615 43.2228 458.499 41.9478 458.615 41.9366Z" fill="#455A64"/>
<path d="M289.292 177.116L265.976 223.541H298.078L320.944 176.747L289.292 177.116Z" fill="#455A64"/>
<path d="M272.335 127.74L298.631 172.766H381.565L378.212 166.883L354.19 166.257L334.6 128.299C334.005 127.142 333.038 126.161 331.816 125.472C330.594 124.783 329.17 124.417 327.714 124.418H274.673C274.218 124.404 273.767 124.495 273.366 124.683C272.965 124.87 272.628 125.147 272.39 125.485C272.153 125.823 272.022 126.209 272.012 126.606C272.003 127.002 272.114 127.393 272.335 127.74Z" fill="#E0E0E0"/>
<path d="M313.866 147.927C313.866 148.473 313.68 149.007 313.331 149.461C312.983 149.916 312.487 150.27 311.907 150.479C311.328 150.688 310.69 150.742 310.074 150.636C309.459 150.529 308.893 150.266 308.45 149.88C308.006 149.494 307.704 149.001 307.581 148.465C307.459 147.93 307.522 147.374 307.762 146.869C308.002 146.365 308.409 145.933 308.93 145.63C309.452 145.326 310.066 145.164 310.693 145.164C311.534 145.167 312.339 145.459 312.933 145.976C313.527 146.494 313.863 147.195 313.866 147.927Z" fill="#263238"/>
<path d="M390.403 172.855H289.022V177.161H390.403V172.855Z" fill="#455A64"/>
<path d="M359.174 175.014L390.017 223.586H404.764L407.976 218.027L410.93 212.178L390.403 177.161L359.174 175.014Z" fill="#455A64"/>
<path d="M412.767 91.7385C412.767 91.7385 394.86 97.2298 391.006 114.677L409.916 122.886L412.767 91.7385Z" fill="#A338A9"/>
<path d="M412.767 91.7387C412.767 91.7387 400.243 116.187 400.718 129.54C400.885 134.182 404.379 146.316 404.379 146.316L410.892 176.356C410.892 176.356 460.747 170.485 461.852 170.485C462.957 170.485 460.182 145.824 460.182 145.824L468.314 98.4378C468.314 98.4378 464.588 91.9847 447.76 89.7479C437.676 88.3723 412.767 91.7387 412.767 91.7387Z" fill="#A338A9"/>
<path d="M408.04 105.931C408.156 105.987 406.846 107.81 405.266 110.964C404.349 112.81 403.577 114.708 402.953 116.645C402.203 119.018 401.658 121.437 401.322 123.881C401.026 126.329 400.936 128.792 401.052 131.251C401.169 133.259 401.439 135.258 401.861 137.235C402.581 140.59 403.403 142.648 403.274 142.681C403.005 142.236 402.79 141.768 402.632 141.283C402.403 140.729 402.206 140.166 402.041 139.595C401.836 138.924 401.566 138.174 401.386 137.358C400.904 135.367 400.586 133.349 400.435 131.318C400.282 128.827 400.355 126.329 400.654 123.848C400.996 121.37 401.567 118.92 402.362 116.522C403.023 114.573 403.851 112.67 404.842 110.83C405.202 110.115 405.605 109.417 406.049 108.738C406.356 108.212 406.695 107.701 407.064 107.206C407.339 106.753 407.666 106.326 408.04 105.931Z" fill="#263238"/>
<path d="M418.831 91.515L419.55 84.8047C419.629 84.1073 420 83.4596 420.592 82.9852C421.185 82.5108 421.957 82.2428 422.762 82.2324L447.362 81.9081C448.108 81.9004 448.83 82.1399 449.38 82.578C449.931 83.0162 450.271 83.6202 450.329 84.2679L450.959 91.5039C448.899 95.3041 445.415 98.3807 441.08 100.227C433.848 103.281 422.608 103.381 422.608 103.381L418.831 91.515Z" fill="#A338A9"/>
<path d="M425.267 82.2882C425.344 82.2882 424.984 82.7244 424.83 83.4066C424.691 84.3946 424.691 85.3936 424.83 86.3815C425.046 87.8219 425.046 89.2805 424.83 90.7209C424.388 89.3179 424.163 87.8699 424.162 86.4151C423.99 85.3794 424.042 84.3249 424.316 83.306C424.74 82.5343 425.228 82.2323 425.267 82.2882Z" fill="#263238"/>
<path d="M431.163 90.5867C430.733 89.2168 430.526 87.8014 430.546 86.3815C430.451 85.3767 430.451 84.3667 430.546 83.3619C430.675 82.5567 431.047 82.1429 431.124 82.2435C431.202 82.3442 431.009 82.7132 431.022 83.4514C431.035 84.1895 431.163 85.2408 431.163 86.3592C431.379 87.7621 431.379 89.1838 431.163 90.5867Z" fill="#263238"/>
<path d="M438.549 90.4077C438.018 89.1026 437.694 87.7405 437.586 86.3591C437.269 84.9907 437.169 83.5907 437.291 82.1987C437.827 83.5139 438.152 84.8878 438.254 86.2808C438.567 87.6384 438.666 89.0267 438.549 90.4077Z" fill="#263238"/>
<path d="M444.921 90.8328C444.334 89.3955 444.022 87.8843 443.996 86.3592C443.749 84.8387 443.793 83.2931 444.125 81.7849C444.461 83.2586 444.642 84.7561 444.664 86.2585C444.914 87.7729 445 89.3044 444.921 90.8328Z" fill="#263238"/>
<g opacity="0.3">
<path opacity="0.3" d="M449.803 116.455C448.813 123.982 449.469 136.955 452.526 144.057L466.888 123.4L449.803 116.455Z" fill="black"/>
</g>
<path d="M466.978 96.8832L467.055 96.9503C471.127 100.672 474.107 105.196 475.739 110.136L478.385 120.638L450.124 124.44C448.568 119.986 448.199 115.281 449.045 110.684C450.432 102.766 466.978 96.8832 466.978 96.8832Z" fill="#A338A9"/>
<path d="M478.385 120.638C478.201 120.694 478.012 120.735 477.82 120.761L476.201 121.018L470.151 121.879L449.674 124.586H449.314V124.261C449.25 122.774 449.199 121.231 449.16 119.642C449.096 115.516 449.16 111.568 449.443 107.978C449.639 104.761 450.77 101.639 452.731 98.9075C454.049 97.07 455.856 95.5356 457.998 94.4339C458.576 94.1349 459.187 93.8876 459.822 93.6958C460.034 93.611 460.259 93.5545 460.49 93.528C460.49 93.528 459.591 93.83 458.127 94.6464C456.088 95.7834 454.378 97.3142 453.13 99.12C451.269 101.835 450.21 104.909 450.047 108.067C449.751 111.624 449.764 115.56 449.841 119.687C449.841 121.253 449.931 122.808 449.97 124.284L449.597 124.004L470.151 121.488L476.227 120.806L477.871 120.638C478.042 120.619 478.214 120.619 478.385 120.638Z" fill="#263238"/>
<path d="M418.689 105.215C417.251 104.486 415.929 103.595 414.759 102.565C413.439 101.678 412.264 100.64 411.265 99.4778C414.022 101.093 416.52 103.023 418.689 105.215Z" fill="#FAFAFA"/>
<path d="M414.874 118.155C413.867 119.056 412.7 119.811 411.419 120.392C410.243 121.134 408.943 121.715 407.565 122.114C409.745 120.483 412.202 119.155 414.849 118.177L414.874 118.155Z" fill="#FAFAFA"/>
<path d="M430.636 121.342C430.408 119.753 430.408 118.145 430.636 116.556C430.645 114.958 430.87 113.366 431.304 111.814C431.529 113.4 431.529 115.003 431.304 116.589C431.3 118.191 431.075 119.787 430.636 121.342Z" fill="#FAFAFA"/>
<path d="M445.962 134.282C444.683 133.237 443.49 132.116 442.39 130.927C441.127 129.879 439.947 128.758 438.858 127.572C440.399 128.351 441.762 129.371 442.878 130.58C444.15 131.646 445.193 132.899 445.962 134.282Z" fill="#FAFAFA"/>
<path d="M448.12 107.228C447.017 108.227 445.759 109.085 444.382 109.778C443.12 110.624 441.733 111.316 440.258 111.836C441.363 110.836 442.626 109.977 444.009 109.286C445.269 108.445 446.651 107.753 448.12 107.228Z" fill="#FAFAFA"/>
<path d="M434.272 97.4424C433.052 98.4748 431.678 99.3589 430.187 100.071C428.819 100.952 427.325 101.674 425.742 102.218C426.963 101.184 428.336 100.296 429.827 99.5785C431.2 98.7078 432.694 97.9902 434.272 97.4424Z" fill="#FAFAFA"/>
<path d="M446.758 101.334C445.916 100.252 445.259 99.069 444.805 97.8227C444.173 96.6377 443.741 95.3797 443.521 94.0873C444.373 95.1688 445.031 96.3566 445.473 97.6102C446.113 98.7886 446.546 100.044 446.758 101.334Z" fill="#FAFAFA"/>
<path d="M463.933 106.244C461.879 105.004 460.096 103.455 458.666 101.67C459.754 102.211 460.724 102.916 461.531 103.75C462.499 104.448 463.313 105.293 463.933 106.244Z" fill="#FAFAFA"/>
<path d="M456.855 117.148C456.447 116.044 456.26 114.886 456.303 113.726C456.111 112.581 456.15 111.415 456.418 110.281C457.009 112.533 457.156 114.854 456.855 117.148Z" fill="#FAFAFA"/>
<path d="M471.127 114.889C469.632 115.097 468.106 115.051 466.631 114.755C465.126 114.648 463.657 114.295 462.302 113.715C463.794 113.729 465.281 113.886 466.734 114.185C468.223 114.283 469.695 114.519 471.127 114.889Z" fill="#FAFAFA"/>
<path d="M413.577 137.425C412.529 136.162 411.666 134.791 411.008 133.343C410.147 131.976 409.482 130.522 409.029 129.015C410.077 130.277 410.94 131.648 411.598 133.097C412.462 134.462 413.127 135.916 413.577 137.425Z" fill="#FAFAFA"/>
<path d="M432.448 155.073C431.241 154.118 430.19 153.023 429.326 151.819C428.294 150.72 427.431 149.509 426.757 148.217C427.967 149.173 429.021 150.268 429.891 151.472C430.928 152.565 431.788 153.777 432.448 155.073Z" fill="#FAFAFA"/>
<path d="M448.043 147.669C446.72 148.42 445.285 149.007 443.778 149.414C442.349 150.001 440.83 150.404 439.269 150.611C442.017 149.27 444.971 148.279 448.043 147.669Z" fill="#FAFAFA"/>
<path d="M409.62 161.962C410.237 159.852 411.277 157.853 412.69 156.057C412.473 157.14 412.038 158.181 411.406 159.133C411.006 160.16 410.402 161.118 409.62 161.962Z" fill="#FAFAFA"/>
<path d="M397.532 111.422C396.79 110.603 396.343 109.611 396.248 108.57C395.945 107.562 395.999 106.498 396.402 105.517C396.666 106.487 396.838 107.475 396.916 108.47C397.212 109.438 397.419 110.425 397.532 111.422Z" fill="#FAFAFA"/>
<path d="M418.998 150.644C417.626 150.33 416.324 149.819 415.144 149.134C413.864 148.629 412.685 147.949 411.65 147.121C413.019 147.441 414.321 147.951 415.504 148.631C416.778 149.145 417.956 149.824 418.998 150.644Z" fill="#FAFAFA"/>
<path d="M431.394 132.012C429.288 134.208 426.841 136.139 424.123 137.749C425.098 136.592 426.248 135.553 427.54 134.663C428.68 133.63 429.977 132.738 431.394 132.012Z" fill="#FAFAFA"/>
<g opacity="0.3">
<path opacity="0.3" d="M423.802 131.665C424.425 135.564 426.423 139.198 429.519 142.066C432.73 144.795 437.702 146.171 441.877 144.75C442.333 144.641 442.752 144.438 443.099 144.157C443.445 143.877 443.709 143.528 443.868 143.14C443.938 142.663 443.817 142.179 443.524 141.772C443.231 141.364 442.785 141.057 442.262 140.903C441.221 140.612 440.131 140.476 439.038 140.501C435.923 140.323 432.911 139.454 430.29 137.979C427.668 136.503 425.524 134.468 424.059 132.068" fill="black"/>
</g>
<path d="M440.502 140.679C440.502 140.679 440.207 140.769 439.641 140.814C438.847 140.884 438.046 140.884 437.252 140.814C436.072 140.693 434.912 140.453 433.796 140.098C431.043 139.236 428.597 137.759 426.705 135.814C425.938 135.027 425.278 134.163 424.74 133.242C424.362 132.628 424.064 131.979 423.854 131.307C423.75 131.067 423.694 130.814 423.687 130.558C423.815 130.558 424.162 131.565 425.151 133.041C425.73 133.902 426.406 134.711 427.168 135.457C428.112 136.363 429.168 137.177 430.315 137.883C431.475 138.567 432.715 139.141 434.015 139.595C435.081 139.96 436.187 140.229 437.316 140.4C439.256 140.646 440.502 140.568 440.502 140.679Z" fill="#263238"/>
<path d="M369.785 158.708L388.386 156.818L401.502 164.3L451.601 153.832L452.783 123.948L475.045 121.398V157.578C474.92 161.971 472.8 166.141 469.15 169.174C465.499 172.208 460.616 173.857 455.57 173.761L382.143 171.983L379.021 166.548L363.259 166.134L369.785 158.708Z" fill="#FFBE9D"/>
<path d="M451.01 153.776C450.701 153.883 450.383 153.969 450.059 154.033L447.336 154.648L437.278 156.818L404.032 163.83L400.936 164.479H400.808H400.705L387.602 156.974H387.782L369.168 158.853L369.297 158.786L364.364 164.233L363.079 165.664C362.936 165.836 362.773 165.993 362.591 166.134C362.711 165.951 362.844 165.776 362.989 165.608L364.274 164.132L369.053 158.607H369.13L387.718 156.583H387.821H387.898L401.026 164.054H400.795L403.891 163.405L437.175 156.538L447.285 154.514L450.034 153.988C450.352 153.895 450.679 153.824 451.01 153.776Z" fill="#EB996E"/>
<path d="M379.946 163.349C377.546 163.594 375.128 163.676 372.714 163.595H371.429L371.609 163.539C370.156 164.702 368.587 165.75 366.92 166.671C368.245 165.398 369.688 164.223 371.236 163.159L371.314 163.092H372.739C375.146 163.006 377.556 163.092 379.946 163.349Z" fill="#EB996E"/>
<path d="M460.246 158.663C459.289 157.348 458.045 156.208 456.585 155.308C455.036 154.546 453.329 154.059 451.562 153.876C452.082 153.72 452.639 153.681 453.181 153.765C454.493 153.885 455.755 154.268 456.869 154.883C457.983 155.498 458.919 156.328 459.604 157.31C459.951 157.704 460.172 158.171 460.246 158.663Z" fill="#EB996E"/>
<path d="M138.981 397.574H55.0964V407.606H138.981V397.574Z" fill="#263238"/>
<path d="M139.122 407.74H54.9552V397.451H139.122V407.74ZM55.2378 407.483H138.84V397.697H55.2378V407.483Z" fill="#263238"/>
<path d="M62.8811 404.273L74.9435 456.133H119.622L131.299 407.617L62.8811 404.273Z" fill="#263238"/>
<path d="M62.8811 451.223L69.3169 458.94H123.617L131.299 451.223H62.8811Z" fill="#455A64"/>
<path d="M93.8914 405.782C93.7244 405.782 93.5189 381.759 93.4161 352.1C93.3133 322.44 93.4161 298.417 93.5445 298.417C93.673 298.417 93.9171 322.44 94.0198 352.1C94.1226 381.759 94.0584 405.782 93.8914 405.782Z" fill="#263238"/>
<path d="M112.582 345.658C112.526 345.85 112.449 346.038 112.351 346.217C112.158 346.631 111.901 347.145 111.606 347.772C111.439 348.118 111.259 348.487 111.054 348.89C110.848 349.293 110.694 349.773 110.501 350.254L109.846 351.82C109.628 352.379 109.448 352.939 109.229 353.61C108.233 356.546 107.448 359.535 106.879 362.557C106.234 366.263 105.805 369.996 105.594 373.741C105.291 380.553 105.514 387.376 106.262 394.162C106.532 396.779 106.802 398.882 107.007 400.336C107.084 401.018 107.161 401.577 107.213 402.013C107.23 402.211 107.23 402.409 107.213 402.606C107.132 402.419 107.08 402.224 107.058 402.025C106.969 401.588 106.866 401.04 106.737 400.369C106.468 398.916 106.121 396.813 105.8 394.207C104.926 387.406 104.647 380.556 104.965 373.718C105.155 369.954 105.584 366.202 106.249 362.478C106.843 359.45 107.676 356.46 108.741 353.531C108.972 352.905 109.165 352.301 109.396 351.753L110.09 350.187L110.707 348.834C110.912 348.42 111.118 348.062 111.298 347.716L112.158 346.195C112.266 345.997 112.409 345.816 112.582 345.658Z" fill="#263238"/>
<path d="M110.437 326.231C110.366 326.501 110.276 326.766 110.167 327.025C109.949 327.574 109.653 328.323 109.294 329.262L108.651 330.873C108.446 331.477 108.215 332.125 107.971 332.819C107.482 334.206 106.917 335.782 106.416 337.561L105.568 340.346C105.311 341.319 105.055 342.336 104.785 343.376C104.194 345.468 103.77 347.738 103.23 350.087C102.305 354.851 101.496 360.152 100.931 365.688C100.366 371.224 100.173 376.581 100.096 381.424C100.019 386.267 100.096 390.628 100.379 394.286C100.443 396.12 100.584 397.764 100.687 399.218C100.79 400.672 100.892 401.924 100.995 402.942C101.098 403.96 101.149 404.709 101.201 405.302C101.218 405.574 101.218 405.846 101.201 406.118C101.118 405.855 101.067 405.585 101.047 405.313C100.97 404.72 100.867 403.948 100.725 402.964C100.584 401.98 100.443 400.728 100.314 399.24C100.186 397.753 100.019 396.142 99.9161 394.308C99.6335 390.64 99.5179 386.278 99.5051 381.424C99.4922 376.57 99.762 371.236 100.302 365.655C100.841 360.074 101.702 354.784 102.652 349.997C103.205 347.615 103.654 345.345 104.258 343.287C104.541 342.236 104.823 341.218 105.08 340.245L105.967 337.471C106.493 335.693 107.097 334.116 107.624 332.729C107.881 332.036 108.125 331.398 108.343 330.794C108.561 330.191 108.818 329.676 109.037 329.195L110.013 326.958C110.123 326.703 110.265 326.459 110.437 326.231Z" fill="#263238"/>
<path d="M88.586 410.032C88.5726 409.94 88.5726 409.846 88.586 409.753C88.586 409.54 88.586 409.272 88.5089 408.925C88.4447 408.165 88.3676 407.102 88.2649 405.749C88.0593 402.942 87.7767 398.96 87.417 394.039C86.6977 384.164 85.6443 370.553 83.7302 355.511C82.7539 347.995 81.6235 340.871 80.4416 334.407C79.825 331.186 79.2598 328.122 78.6047 325.259C77.9495 322.395 77.3201 319.745 76.8062 317.318C76.2924 314.891 75.6372 312.721 75.1362 310.809C74.6352 308.896 74.1856 307.241 73.8516 305.899C73.5176 304.557 73.1965 303.551 72.9781 302.801C72.901 302.477 72.824 302.209 72.7726 301.996C72.7527 301.904 72.7527 301.809 72.7726 301.716C72.8255 301.801 72.8644 301.891 72.8882 301.985L73.1451 302.779C73.3892 303.517 73.7103 304.546 74.1343 305.854C74.5582 307.163 75.0592 308.818 75.5858 310.742C76.1125 312.665 76.7548 314.824 77.3329 317.251C77.911 319.678 78.6175 322.317 79.2084 325.18C79.7993 328.043 80.493 331.108 81.1096 334.34C82.3172 340.804 83.4605 347.939 84.4368 355.444C86.3508 370.475 87.34 384.131 87.9566 394.017C88.2649 398.972 88.4832 402.964 88.6117 405.738C88.6117 407.091 88.7145 408.154 88.7402 408.925C88.7402 409.261 88.7402 409.54 88.7402 409.753C88.7051 409.852 88.6532 409.947 88.586 410.032Z" fill="#263238"/>
<path d="M93.2106 310.037C92.838 306.682 88.8943 304.065 84.9634 304.031C82.9973 304.107 81.0768 304.571 79.3473 305.389C77.6179 306.206 76.1251 307.356 74.9821 308.751C72.721 311.558 71.0868 314.711 70.1649 318.045C67.5186 326.064 66.0798 334.485 67.2103 342.772C68.3407 351.06 72.1945 359.213 79.0286 365.062C80.1333 366.024 81.5978 366.974 83.1008 366.684C83.9141 366.477 84.6528 366.092 85.2461 365.565C91.9349 360.233 97.2364 353.718 100.795 346.455C104.353 339.192 106.086 331.351 105.877 323.458C105.774 320.315 105.299 317.027 103.308 314.41C101.316 311.793 96.6276 308.997 93.2234 310.048" fill="#A338A9"/>
<path d="M63.8831 282.749L58.3593 291.472C58.2308 291.673 58.0638 291.908 57.7941 291.919C57.5243 291.931 57.2802 291.707 57.1261 291.494L42.5073 272.012L45.873 270.345L63.8831 282.749Z" fill="#A338A9"/>
<g opacity="0.2">
<path opacity="0.2" d="M63.8831 282.749L58.3593 291.472C58.2308 291.673 58.0638 291.908 57.7941 291.919C57.5243 291.931 57.2802 291.707 57.1261 291.494L42.5073 272.012L45.873 270.345L63.8831 282.749Z" fill="black"/>
</g>
<path d="M93.5445 298.462L43.6764 272.84C43.3925 272.745 43.133 272.602 42.9125 272.42C42.6921 272.237 42.5151 272.019 42.3918 271.777C42.1991 271.14 42.7515 270.513 43.2782 270.032C46.7095 266.937 50.8662 264.52 55.4656 262.947C60.0651 261.375 64.9995 260.682 69.9336 260.917C74.8657 261.226 79.6372 262.576 83.836 264.85C88.0347 267.124 91.5344 270.254 94.0327 273.969C98.8371 281.451 99.0041 291.36 93.4803 298.462" fill="#A338A9"/>
<path d="M50.9215 264.664C51.1347 264.613 51.3556 264.59 51.5767 264.597C52.0006 264.597 52.6429 264.507 53.465 264.519C55.7804 264.491 58.0937 264.649 60.3762 264.988C63.7766 265.496 67.0908 266.371 70.2419 267.594C75.6804 269.725 80.5104 272.876 84.3858 276.822C88.2612 280.768 91.0861 285.412 92.6581 290.421C93.3017 292.364 93.7318 294.356 93.9427 296.37C94.0455 297.075 94.0198 297.634 94.0455 298.014C94.0677 298.204 94.0677 298.395 94.0455 298.585C94.0455 298.585 93.9299 297.802 93.7244 296.348C93.4399 294.361 92.9716 292.398 92.3241 290.477C90.2329 284.101 86.1311 278.364 80.484 273.917C74.8369 269.469 67.8707 266.488 60.3762 265.313C58.1175 264.939 55.8276 264.726 53.5292 264.675C51.7693 264.686 50.9215 264.709 50.9215 264.664Z" fill="#263238"/>
<path d="M86.7875 280.78C85.9837 281.206 85.1202 281.541 84.2183 281.775C82.6254 282.323 80.3645 283.017 77.9238 283.71C75.4831 284.404 73.1708 284.94 71.5008 285.298C70.6147 285.534 69.7014 285.684 68.7775 285.746C69.5992 285.4 70.4603 285.13 71.3467 284.94L77.6926 283.207L84.0256 281.429C84.9193 281.133 85.8445 280.916 86.7875 280.78Z" fill="#263238"/>
<path d="M78.9386 262.416C79.385 264 79.5838 265.629 79.5295 267.259C79.6762 268.885 79.5725 270.521 79.2212 272.124C78.9804 270.515 78.8859 268.892 78.9386 267.27C78.7918 265.654 78.7918 264.031 78.9386 262.416Z" fill="#263238"/>
<path d="M43.2139 272.359C44.3806 271.892 45.593 271.518 46.8364 271.24C49.0973 270.625 52.2574 269.853 55.8286 269.115C59.3998 268.377 62.5599 267.818 64.8208 267.46C66.088 267.213 67.3775 267.064 68.6746 267.013C67.4551 267.354 66.2105 267.623 64.9493 267.818C62.637 268.265 59.4512 268.936 55.9571 269.63C52.463 270.323 49.29 271.072 46.9649 271.587C45.7355 271.916 44.4824 272.174 43.2139 272.359Z" fill="#263238"/>
<path d="M70.5502 301.962C66.2597 299.133 61.725 298.607 56.3426 298.752C50.9593 299.051 45.6875 300.223 40.7989 302.208C32.3848 305.407 24.4845 310.138 19.4617 316.826C14.4389 323.514 12.679 332.371 16.4429 339.663C16.7391 340.426 17.3472 341.067 18.1514 341.464C19.0857 341.69 20.0818 341.623 20.9647 341.274C30.535 338.556 40.1566 335.816 48.9561 331.566C57.7556 327.316 65.7587 321.4 70.4732 313.672C71.6805 311.868 72.4581 309.871 72.7598 307.8C72.8884 306.752 72.759 305.693 72.3802 304.692C72.0014 303.691 71.382 302.772 70.5631 301.996" fill="#A338A9"/>
<path d="M70.6273 301.09C70.4131 301.197 70.1843 301.279 69.9465 301.336L67.9425 301.94L66.4909 302.354C65.9642 302.522 65.399 302.723 64.7952 302.935C63.5877 303.36 62.226 303.785 60.6974 304.412L58.3594 305.34C57.5373 305.664 56.728 306.067 55.8673 306.458C54.1331 307.196 52.386 308.147 50.5105 309.109C42.4998 313.432 35.3714 318.886 29.4174 325.247C28.1328 326.735 26.7839 328.133 25.7177 329.542C25.1653 330.235 24.613 330.884 24.1248 331.544L22.8402 333.445C21.941 334.642 21.273 335.805 20.6307 336.8C20.3224 337.292 20.0141 337.751 19.7572 338.187C19.5003 338.623 19.2947 339.015 19.102 339.384L18.1514 341.039C18.0619 341.239 17.9408 341.427 17.7917 341.598C17.8543 341.39 17.9404 341.188 18.0487 340.994L18.8837 339.294C19.0763 338.925 19.2819 338.522 19.5003 338.075C19.7186 337.628 20.0398 337.169 20.3353 336.666C20.9519 335.648 21.6199 334.429 22.4677 333.255C22.9045 332.64 23.3412 331.991 23.7523 331.32C24.1634 330.649 24.78 330 25.3195 329.296C26.3729 327.864 27.6703 326.455 28.9935 324.945C31.9874 321.741 35.2692 318.749 38.8078 315.998C42.3858 313.292 46.2092 310.842 50.2407 308.673C52.1291 307.711 53.9018 306.771 55.6489 306.045C56.5224 305.664 57.3446 305.273 58.2181 304.926L60.5946 304.031C62.0976 303.416 63.5106 303.014 64.7439 302.611C65.3605 302.421 65.9257 302.231 66.4652 302.074L67.9297 301.694L69.9722 301.191C70.1874 301.143 70.4064 301.11 70.6273 301.09Z" fill="#263238"/>
<path d="M37.125 316.882C33.7097 318.015 30.2278 318.989 26.694 319.801C23.2134 320.786 19.6707 321.596 16.0833 322.228C19.4986 321.095 22.9804 320.121 26.5142 319.309C29.9969 318.33 33.5393 317.52 37.125 316.882Z" fill="#263238"/>
<path d="M36.6881 336.879C36.5128 335.943 36.4354 334.996 36.4569 334.049C36.4569 332.304 36.4569 329.877 36.4569 327.216C36.4569 324.554 36.7138 322.127 36.8808 320.382C36.9069 319.433 37.0446 318.489 37.2918 317.564C37.3783 318.509 37.3783 319.459 37.2918 320.405C37.2148 322.317 37.1377 324.643 37.0478 327.227C36.9578 329.81 36.9065 332.137 36.8422 334.049C36.8903 334.994 36.8387 335.941 36.6881 336.879Z" fill="#263238"/>
<path d="M56.4196 328.177C56.2526 328.177 55.7259 323.268 55.2506 317.195C54.7753 311.122 54.5056 306.19 54.6726 306.19C54.8396 306.19 55.3534 311.088 55.8415 317.161C56.3297 323.234 56.5866 328.166 56.4196 328.177Z" fill="#263238"/>
<path d="M31.8708 305.709C32.9784 305.587 34.0967 305.557 35.2108 305.619C37.2662 305.619 40.118 305.687 43.2653 305.776C46.4125 305.866 49.2515 305.977 51.3069 306.078C52.4229 306.091 53.5358 306.184 54.634 306.358C53.5264 306.479 52.4081 306.509 51.294 306.447C49.2387 306.447 46.3868 306.391 43.2396 306.29C40.0923 306.19 37.2533 306.089 35.1851 305.989C34.0732 305.977 32.9645 305.884 31.8708 305.709Z" fill="#263238"/>
<path d="M81.1738 367.388C81.1167 367.191 81.0907 366.988 81.0967 366.784C81.0967 366.348 81.0967 365.778 81.0068 365.084C80.9297 363.597 80.9169 361.461 81.0068 358.799C81.0967 356.137 81.2637 352.994 81.6234 349.505C81.9831 346.016 82.574 342.18 83.3833 338.187C84.1926 334.194 85.1946 330.448 86.2095 327.003C87.2243 323.558 88.329 320.595 89.331 318.056C90.333 315.517 91.1809 313.582 91.9002 312.173C92.2085 311.524 92.4526 311.055 92.6582 310.596C92.7369 310.409 92.8358 310.23 92.9536 310.059C92.9254 310.257 92.8604 310.45 92.7609 310.63L92.0287 312.274C91.4378 313.661 90.6285 315.629 89.6907 318.201C88.753 320.774 87.7253 323.793 86.7104 327.148C85.6956 330.504 84.745 334.284 83.9229 338.265C83.1007 342.247 82.5483 346.094 82.1373 349.527C81.7262 352.961 81.495 356.148 81.3922 358.788C81.2894 361.427 81.2252 363.574 81.2252 365.062C81.2252 365.755 81.2252 366.315 81.2252 366.762C81.2249 366.971 81.2078 367.181 81.1738 367.388Z" fill="#263238"/>
<path d="M83.7944 337.762C83.2112 338.456 82.5437 339.094 81.8033 339.663C80.5187 340.782 78.6817 342.28 76.6006 343.88C74.5196 345.479 72.5541 346.855 71.1025 347.828C70.36 348.39 69.5504 348.881 68.6875 349.293C69.3413 348.649 70.0639 348.061 70.8456 347.537L76.2024 343.488L81.5206 339.395C82.2172 338.789 82.9785 338.242 83.7944 337.762Z" fill="#263238"/>
<path d="M99.5822 348.823C98.8009 348.022 98.0922 347.17 97.4626 346.273L92.5425 340.01L87.5069 333.814C86.7601 332.987 86.0859 332.112 85.4901 331.197C86.3595 331.928 87.1467 332.729 87.8409 333.591C89.2283 335.123 91.0781 337.27 92.9793 339.719C94.8805 342.169 96.6019 344.417 97.7709 346.072C98.4722 346.938 99.0786 347.859 99.5822 348.823Z" fill="#263238"/>
<path d="M91.3094 314.007C91.3993 314.13 86.171 317.206 79.6067 320.874C73.0424 324.543 67.6599 327.428 67.57 327.305C67.4801 327.182 72.7084 324.106 79.2855 320.438C85.8627 316.77 91.2323 313.896 91.3094 314.007Z" fill="#263238"/>
<path d="M106.159 327.931C103.391 325.925 100.745 323.793 98.2333 321.545C95.5882 319.431 93.0794 317.191 90.7184 314.835C93.4965 316.836 96.1468 318.968 98.6572 321.221C101.304 323.33 103.809 325.571 106.159 327.931Z" fill="#263238"/>
<path d="M109.82 327.629L114.317 327.305C117.514 327.077 120.617 326.249 123.411 324.878C124.779 324.184 126.195 323.564 127.651 323.022C133.213 321.087 139.43 321.434 145.417 321.165C155.225 320.735 164.834 318.598 173.678 314.88C174.209 314.676 174.657 314.337 174.962 313.907C175.887 312.442 174.166 311.133 172.689 310.339C165.097 306.268 157.376 302.153 148.782 300.128C140.188 298.104 130.413 298.451 123.09 302.846C114.484 308.013 111.336 318.615 109.885 327.629" fill="#A338A9"/>
<path d="M175.001 313.392C174.742 313.3 174.489 313.195 174.243 313.079L172.111 312.106C170.261 311.256 167.602 310.004 164.223 308.606C160.31 306.923 156.23 305.553 152.032 304.512C146.899 303.227 141.523 302.847 136.219 303.394C130.907 303.908 125.891 305.784 121.806 308.785C118.615 311.366 116.062 314.486 114.304 317.955C112.724 320.897 111.734 323.402 111.041 325.102L110.231 327.081C110.152 327.316 110.049 327.544 109.923 327.764C109.96 327.52 110.025 327.28 110.116 327.048C110.296 326.544 110.527 325.873 110.809 325.046C111.667 322.603 112.688 320.205 113.867 317.866C115.598 314.316 118.162 311.12 121.395 308.483C125.537 305.376 130.658 303.427 136.09 302.891C141.466 302.325 146.918 302.705 152.122 304.009C156.343 305.088 160.441 306.503 164.364 308.237C167.717 309.69 170.351 310.988 172.175 311.894L174.256 312.956C174.524 313.074 174.775 313.22 175.001 313.392Z" fill="#263238"/>
<path d="M164.197 318.481C164.108 318.593 158.211 315.282 151.043 311.077C143.875 306.872 138.133 303.36 138.197 303.249C138.261 303.137 144.171 306.447 151.339 310.652C158.507 314.857 164.287 318.358 164.197 318.481Z" fill="#263238"/>
<path d="M158.545 302.745C155.546 303.566 152.38 303.822 149.258 303.495C150.784 303.218 152.336 303.061 153.895 303.025C155.433 302.815 156.989 302.722 158.545 302.745Z" fill="#263238"/>
<path d="M132.147 298.63C131.023 300.944 129.55 303.118 127.766 305.094C128.226 303.903 128.875 302.774 129.693 301.739C130.338 300.606 131.164 299.559 132.147 298.63Z" fill="#263238"/>
<path d="M137.414 321.501C136.42 321.14 135.473 320.691 134.587 320.159C132.879 319.264 130.58 317.922 128.164 316.39C125.749 314.857 123.553 313.37 121.986 312.296C121.108 311.756 120.291 311.146 119.545 310.473C120.499 310.906 121.403 311.419 122.242 312.006L128.524 315.976C130.965 317.519 133.213 318.872 134.857 319.857C135.763 320.339 136.618 320.889 137.414 321.501Z" fill="#263238"/>
<path d="M116.436 344.282C112.146 343.287 107.02 346.922 106.159 350.713C105.299 354.504 106.917 358.374 108.818 361.897C112.91 369.719 118.979 376.636 126.572 382.129C134.23 387.597 143.786 390.651 153.689 390.796C151.878 383.46 154.165 375.787 153.163 368.328C152.268 361.757 148.839 355.646 143.437 350.991C138.035 346.337 130.98 343.416 123.424 342.705C120.688 342.448 117.515 342.079 116.423 344.282" fill="#A338A9"/>
<path d="M153.689 390.796C153.474 390.734 153.267 390.652 153.073 390.55C152.51 390.274 151.973 389.96 151.467 389.611C149.668 388.247 148.223 386.566 147.228 384.679C146.547 383.56 145.776 382.263 145.031 380.865C144.286 379.467 143.541 377.991 142.719 376.391C141.895 374.754 140.946 373.166 139.88 371.638C138.736 370.009 137.448 368.461 136.026 367.008C133.097 364.011 129.937 361.416 127.201 358.922C124.727 356.751 122.475 354.398 120.47 351.887C119.126 350.185 118.022 348.349 117.181 346.418C116.911 345.736 116.706 345.188 116.603 344.819C116.532 344.635 116.489 344.443 116.475 344.249C116.475 344.249 116.77 345.009 117.4 346.351C118.316 348.231 119.461 350.019 120.817 351.686C122.86 354.142 125.128 356.449 127.599 358.586C130.348 361.047 133.521 363.642 136.489 366.672C137.943 368.146 139.262 369.716 140.432 371.37C141.495 372.923 142.443 374.533 143.271 376.19L145.532 380.664C146.252 382.05 146.997 383.325 147.665 384.477C148.602 386.348 149.966 388.033 151.673 389.432C152.906 390.394 153.754 390.751 153.689 390.796Z" fill="#263238"/>
<path d="M131.504 384.701C131.53 383.852 131.664 383.008 131.903 382.184C132.237 380.641 132.789 378.527 133.534 376.223C134.279 373.92 135.076 371.873 135.718 370.408C135.999 369.595 136.392 368.814 136.887 368.082C136.713 368.913 136.455 369.728 136.116 370.52C135.577 372.018 134.832 374.076 134.112 376.369C133.393 378.662 132.828 380.742 132.314 382.263C132.137 383.097 131.866 383.913 131.504 384.701Z" fill="#263238"/>
<path d="M152.906 366.684C151.877 366.552 150.863 366.347 149.874 366.069C148.024 365.655 145.468 365.073 142.629 364.514C139.79 363.955 137.195 363.53 135.32 363.217C134.291 363.102 133.277 362.907 132.288 362.635C133.326 362.612 134.364 362.687 135.384 362.859C137.285 363.071 139.906 363.452 142.758 363.977C145.609 364.503 148.166 365.174 149.99 365.688C150.999 365.931 151.976 366.265 152.906 366.684Z" fill="#263238"/>
<path d="M115.575 371.918C115.624 370.934 115.779 369.957 116.038 368.999C116.423 367.22 117.014 364.76 117.823 362.087C118.633 359.414 119.481 357.009 120.149 355.287C120.478 354.341 120.908 353.424 121.433 352.547C121.247 353.515 120.972 354.469 120.611 355.399C120.046 357.144 119.249 359.548 118.453 362.21C117.657 364.872 116.988 367.321 116.513 369.077C116.294 370.045 115.98 370.996 115.575 371.918Z" fill="#263238"/>
<path d="M143.053 350.981C143.053 351.116 137.67 350.746 131.08 350.131C124.49 349.516 119.147 348.912 119.172 348.778C123.177 348.878 127.173 349.158 131.145 349.617C135.138 349.895 139.113 350.35 143.053 350.981Z" fill="#263238"/>
<path d="M139.122 407.572C139.122 407.717 120.277 407.829 97.0387 407.829C73.8003 407.829 54.9552 407.717 54.9552 407.572C54.9552 407.427 73.8003 407.315 97.0387 407.315C120.277 407.315 139.122 407.427 139.122 407.572Z" fill="#455A64"/>
<path d="M126.019 428.676C126.019 428.821 113.315 428.944 97.6553 428.944C81.9961 428.944 69.3042 428.821 69.3042 428.676C69.3042 428.531 81.9961 428.419 97.6553 428.419C113.315 428.419 126.019 428.586 126.019 428.676Z" fill="#455A64"/>
<path d="M126.507 431.696C126.507 431.841 113.816 431.953 98.1563 431.953C82.497 431.953 69.8052 431.841 69.8052 431.696C69.8052 431.55 82.497 431.438 98.1563 431.438C113.816 431.438 126.507 431.55 126.507 431.696Z" fill="#455A64"/>
<path d="M126.507 426.193C126.507 426.339 113.379 426.45 97.1799 426.45C80.9811 426.45 67.8525 426.339 67.8525 426.193C67.8525 426.048 80.9811 425.936 97.1799 425.936C113.379 425.936 126.507 426.048 126.507 426.193Z" fill="#455A64"/>
</svg>
