<?xml version="1.0" encoding="UTF-8" standalone="no"?>
<!DOCTYPE svg PUBLIC "-//W3C//DTD SVG 1.1//EN" "http://www.w3.org/Graphics/SVG/1.1/DTD/svg11.dtd">
<svg version="1.1" xmlns="http://www.w3.org/2000/svg" xmlns:xlink="http://www.w3.org/1999/xlink" preserveAspectRatio="xMidYMid meet" viewBox="0 0 640 640" width="640" height="640"><defs><path d="M0.76 68L0.76 0.8L54.04 0.8L54.04 14.24L18.04 14.24L18.04 30.08L46.36 30.08L46.36 43.52L18.04 43.52L18.04 68L0.76 68ZM72.76 33.92C72.76 36.19 72.76 47.55 72.76 68L55.96 68L55.96 17.12L70.84 17.12C71.41 20.86 71.73 22.94 71.8 23.36C77.3 18.56 83.06 16.16 89.08 16.16C89.36 16.16 90.8 16.16 93.4 16.16L93.4 31.04L85.24 31.04C79.77 31.68 75.61 32.64 72.76 33.92ZM114.08 32C114.08 32.35 114.08 34.11 114.08 37.28L130.4 37.28C130.4 34.11 130.4 32.35 130.4 32C130.4 29.44 129.12 28.16 126.56 28.16C125.98 28.16 123.1 28.16 117.92 28.16C115.36 29.01 114.08 30.29 114.08 32ZM111.68 68.96C107.33 68.96 103.84 67.65 101.21 65.02C98.59 62.4 97.28 58.91 97.28 54.56C97.28 52.26 97.28 33.82 97.28 31.52C97.28 26.72 98.62 22.98 101.31 20.29C104.06 17.54 107.84 16.16 112.64 16.16C114.56 16.16 129.92 16.16 131.84 16.16C136.64 16.16 140.38 17.54 143.07 20.29C145.82 22.98 147.2 26.72 147.2 31.52C147.2 32.7 147.2 38.62 147.2 49.28L114.08 49.28C114.08 51.58 114.08 52.86 114.08 53.12C114.08 54.08 114.4 54.88 115.04 55.52C115.68 56.16 116.48 56.48 117.44 56.48C123.77 56.48 133.05 56 145.28 55.04C145.28 55.84 145.28 59.84 145.28 67.04C129.58 68.32 118.38 68.96 111.68 68.96ZM171.64 32C171.64 32.35 171.64 34.11 171.64 37.28L187.96 37.28C187.96 34.11 187.96 32.35 187.96 32C187.96 29.44 186.68 28.16 184.12 28.16C183.54 28.16 180.66 28.16 175.48 28.16C172.92 29.01 171.64 30.29 171.64 32ZM169.24 68.96C164.89 68.96 161.4 67.65 158.78 65.02C156.15 62.4 154.84 58.91 154.84 54.56C154.84 52.26 154.84 33.82 154.84 31.52C154.84 26.72 156.18 22.98 158.87 20.29C161.62 17.54 165.4 16.16 170.2 16.16C172.12 16.16 187.48 16.16 189.4 16.16C194.2 16.16 197.94 17.54 200.63 20.29C203.38 22.98 204.76 26.72 204.76 31.52C204.76 32.7 204.76 38.62 204.76 49.28L171.64 49.28C171.64 51.58 171.64 52.86 171.64 53.12C171.64 54.08 171.96 54.88 172.6 55.52C173.24 56.16 174.04 56.48 175 56.48C181.34 56.48 190.62 56 202.84 55.04C202.84 55.84 202.84 59.84 202.84 67.04C187.14 68.32 175.94 68.96 169.24 68.96ZM266.64 54.56L266.64 68L214.32 68L214.32 0.8L231.6 0.8L231.6 54.56L266.64 54.56ZM304.11 53.6C304.11 53.22 304.11 51.3 304.11 47.84C295.75 47.84 291.11 47.84 290.19 47.84C289.23 47.84 288.43 48.16 287.79 48.8C287.15 49.44 286.83 50.24 286.83 51.2C286.83 51.3 286.83 52.06 286.83 52.16C286.83 53.12 287.15 53.92 287.79 54.56C288.43 55.2 289.23 55.52 290.19 55.52C290.35 55.52 291.15 55.52 292.58 55.52C297.41 55.09 301.25 54.45 304.11 53.6ZM306.51 16.16C310.86 16.16 314.35 17.47 316.97 20.1C319.59 22.72 320.9 26.21 320.9 30.56C320.9 33.06 320.9 45.54 320.9 68L306.02 68C305.45 65.12 305.13 63.52 305.07 63.2C302.06 65.18 298.95 66.66 295.75 67.62C292.62 68.51 289.96 68.96 287.79 68.96C287.45 68.96 284.76 68.96 284.43 68.96C280.07 68.96 276.58 67.65 273.96 65.02C271.34 62.4 270.02 58.91 270.02 54.56C270.02 54.13 270.02 50.67 270.02 50.24C270.02 45.89 271.34 42.4 273.96 39.78C276.58 37.15 280.07 35.84 284.43 35.84C285.74 35.84 292.3 35.84 304.11 35.84C304.11 33.54 304.11 32.26 304.11 32C304.11 31.04 303.79 30.24 303.15 29.6C302.51 28.96 301.71 28.64 300.75 28.64C296.58 28.64 291.98 28.83 286.92 29.22C281.93 29.6 277.9 29.89 274.83 30.08C274.82 29.28 274.82 25.28 274.83 18.08C289.67 16.8 300.23 16.16 306.51 16.16ZM361.2 53.6C361.2 53.22 361.2 51.3 361.2 47.84C352.85 47.84 348.21 47.84 347.28 47.84C346.32 47.84 345.52 48.16 344.88 48.8C344.24 49.44 343.92 50.24 343.92 51.2C343.92 51.3 343.92 52.06 343.92 52.16C343.92 53.12 344.24 53.92 344.88 54.56C345.52 55.2 346.32 55.52 347.28 55.52C347.44 55.52 348.24 55.52 349.68 55.52C354.5 55.09 358.34 54.45 361.2 53.6ZM363.6 16.16C367.95 16.16 371.44 17.47 374.06 20.1C376.69 22.72 378 26.21 378 30.56C378 33.06 378 45.54 378 68L363.12 68C362.54 65.12 362.22 63.52 362.16 63.2C359.15 65.18 356.05 66.66 352.85 67.62C349.71 68.51 347.06 68.96 344.88 68.96C344.54 68.96 341.86 68.96 341.52 68.96C337.17 68.96 333.68 67.65 331.06 65.02C328.43 62.4 327.12 58.91 327.12 54.56C327.12 54.13 327.12 50.67 327.12 50.24C327.12 45.89 328.43 42.4 331.06 39.78C333.68 37.15 337.17 35.84 341.52 35.84C342.83 35.84 349.39 35.84 361.2 35.84C361.2 33.54 361.2 32.26 361.2 32C361.2 31.04 360.88 30.24 360.24 29.6C359.6 28.96 358.8 28.64 357.84 28.64C353.68 28.64 349.07 28.83 344.02 29.22C339.02 29.6 334.99 29.89 331.92 30.08C331.92 29.28 331.92 25.28 331.92 18.08C346.77 16.8 357.33 16.16 363.6 16.16ZM419.73 16.16C420.17 16.16 423.62 16.16 424.05 16.16C428.41 16.16 431.89 17.47 434.52 20.1C437.14 22.72 438.45 26.21 438.45 30.56C438.45 33.06 438.45 45.54 438.45 68L421.65 68C421.65 46.69 421.65 34.85 421.65 32.48C421.65 31.52 421.33 30.72 420.69 30.08C420.05 29.44 419.25 29.12 418.29 29.12C417.96 29.12 415.27 29.12 414.93 29.12C412.5 29.12 410.26 29.25 408.21 29.5C406.23 29.76 404.63 29.95 403.41 30.08C403.41 32.61 403.41 45.25 403.41 68L386.61 68L386.61 0.8L403.41 0.8L403.41 18.08C411.18 16.8 416.62 16.16 419.73 16.16Z" id="j5dUuYUHv"></path></defs><g><g><g><use xlink:href="#j5dUuYUHv" opacity="1" fill="#31bc3b" fill-opacity="0.61"></use><g><use xlink:href="#j5dUuYUHv" opacity="1" fill-opacity="0" stroke="#000000" stroke-width="1" stroke-opacity="0"></use></g></g></g></g></svg>