<svg width="439" height="69" viewBox="0 0 439 69" fill="none" xmlns="http://www.w3.org/2000/svg">
<path d="M18.04 68H0.76V0.799995H54.04V14.24H18.04V30.08H46.36V43.52H18.04V68ZM85.2363 31.04C81.2043 31.04 77.0443 32 72.7563 33.92V68H55.9563V17.12H70.8363L71.7963 23.36C77.3003 18.56 83.0603 16.16 89.0763 16.16H93.3963V31.04H85.2363ZM117.918 28.16C115.358 28.16 114.078 29.44 114.078 32V37.28H130.398V32C130.398 29.44 129.118 28.16 126.558 28.16H117.918ZM145.278 67.04C132.926 68.32 121.726 68.96 111.678 68.96C107.326 68.96 103.838 67.648 101.214 65.024C98.5895 62.4 97.2775 58.912 97.2775 54.56V31.52C97.2775 26.72 98.6215 22.976 101.31 20.288C104.062 17.536 107.838 16.16 112.638 16.16H131.838C136.638 16.16 140.382 17.536 143.07 20.288C145.822 22.976 147.198 26.72 147.198 31.52V49.28H114.078V53.12C114.078 54.08 114.398 54.88 115.038 55.52C115.678 56.16 116.478 56.48 117.438 56.48C123.774 56.48 133.054 56 145.278 55.04V67.04ZM175.48 28.16C172.92 28.16 171.64 29.44 171.64 32V37.28H187.96V32C187.96 29.44 186.68 28.16 184.12 28.16H175.48ZM202.84 67.04C190.488 68.32 179.288 68.96 169.24 68.96C164.888 68.96 161.4 67.648 158.776 65.024C156.152 62.4 154.84 58.912 154.84 54.56V31.52C154.84 26.72 156.184 22.976 158.872 20.288C161.624 17.536 165.4 16.16 170.2 16.16H189.4C194.2 16.16 197.944 17.536 200.632 20.288C203.384 22.976 204.76 26.72 204.76 31.52V49.28H171.64V53.12C171.64 54.08 171.96 54.88 172.6 55.52C173.24 56.16 174.04 56.48 175 56.48C181.336 56.48 190.616 56 202.84 55.04V67.04ZM231.603 54.56H266.643V68H214.323V0.799995H231.603V54.56ZM292.585 55.52C295.977 55.52 299.817 54.88 304.105 53.6V47.84H290.185C289.225 47.84 288.425 48.16 287.785 48.8C287.145 49.44 286.825 50.24 286.825 51.2V52.16C286.825 53.12 287.145 53.92 287.785 54.56C288.425 55.2 289.225 55.52 290.185 55.52H292.585ZM274.825 18.08C286.537 16.8 297.097 16.16 306.505 16.16C310.857 16.16 314.345 17.472 316.969 20.096C319.593 22.72 320.905 26.208 320.905 30.56V68H306.025L305.065 63.2C302.057 65.184 298.953 66.656 295.753 67.616C292.617 68.512 289.961 68.96 287.785 68.96H284.425C280.073 68.96 276.585 67.648 273.961 65.024C271.337 62.4 270.025 58.912 270.025 54.56V50.24C270.025 45.888 271.337 42.4 273.961 39.776C276.585 37.152 280.073 35.84 284.425 35.84H304.105V32C304.105 31.04 303.785 30.24 303.145 29.6C302.505 28.96 301.705 28.64 300.745 28.64C296.585 28.64 291.977 28.832 286.921 29.216C281.929 29.6 277.897 29.888 274.825 30.08V18.08ZM349.679 55.52C353.071 55.52 356.911 54.88 361.199 53.6V47.84H347.279C346.319 47.84 345.519 48.16 344.879 48.8C344.239 49.44 343.919 50.24 343.919 51.2V52.16C343.919 53.12 344.239 53.92 344.879 54.56C345.519 55.2 346.319 55.52 347.279 55.52H349.679ZM331.919 18.08C343.631 16.8 354.191 16.16 363.599 16.16C367.951 16.16 371.439 17.472 374.063 20.096C376.687 22.72 377.999 26.208 377.999 30.56V68H363.119L362.159 63.2C359.151 65.184 356.047 66.656 352.847 67.616C349.711 68.512 347.055 68.96 344.879 68.96H341.519C337.167 68.96 333.679 67.648 331.055 65.024C328.431 62.4 327.119 58.912 327.119 54.56V50.24C327.119 45.888 328.431 42.4 331.055 39.776C333.679 37.152 337.167 35.84 341.519 35.84H361.199V32C361.199 31.04 360.879 30.24 360.239 29.6C359.599 28.96 358.799 28.64 357.839 28.64C353.679 28.64 349.071 28.832 344.015 29.216C339.023 29.6 334.991 29.888 331.919 30.08V18.08ZM403.413 18.08C409.621 16.8 415.061 16.16 419.733 16.16H424.053C428.405 16.16 431.893 17.472 434.517 20.096C437.141 22.72 438.453 26.208 438.453 30.56V68H421.653V32.48C421.653 31.52 421.333 30.72 420.693 30.08C420.053 29.44 419.253 29.12 418.293 29.12H414.933C412.501 29.12 410.261 29.248 408.213 29.504C406.229 29.76 404.629 29.952 403.413 30.08V68H386.613V0.799995H403.413V18.08Z" fill="#F0F0F7"/>
</svg>
