<svg width="439" height="69" xmlns="http://www.w3.org/2000/svg">

 <g>
  <title>background</title>
  <rect fill="none" id="canvas_background" height="602" width="802" y="-1" x="-1"/>
 </g>
 <g>
  <title>Layer 1</title>
  <path id="svg_1" fill="#729C62" d="m18.04,68l-17.28,0l0,-67.20001l53.28,0l0,13.44001l-36,0l0,15.84l28.32,0l0,13.44l-28.32,0l0,24.48zm67.1963,-36.96c-4.032,0 -8.192,0.96 -12.48,2.88l0,34.08l-16.8,0l0,-50.88l14.88,0l0.96,6.24c5.504,-4.8 11.264,-7.2 17.28,-7.2l4.32,0l0,14.88l-8.16,0zm32.6817,-2.88c-2.56,0 -3.84,1.28 -3.84,3.84l0,5.28l16.32,0l0,-5.28c0,-2.56 -1.28,-3.84 -3.84,-3.84l-8.64,0zm27.36,38.88c-12.352,1.28 -23.552,1.92 -33.6,1.92c-4.352,0 -7.84,-1.312 -10.464,-3.936c-2.6245,-2.624 -3.9365,-6.112 -3.9365,-10.464l0,-23.04c0,-4.8 1.344,-8.544 4.0325,-11.232c2.752,-2.752 6.528,-4.128 11.328,-4.128l19.2,0c4.8,0 8.544,1.376 11.232,4.128c2.752,2.688 4.128,6.432 4.128,11.232l0,17.76l-33.12,0l0,3.84c0,0.96 0.32,1.76 0.96,2.4c0.64,0.64 1.44,0.96 2.4,0.96c6.336,0 15.616,-0.48 27.84,-1.44l0,12zm30.202,-38.88c-2.56,0 -3.84,1.28 -3.84,3.84l0,5.28l16.32,0l0,-5.28c0,-2.56 -1.28,-3.84 -3.84,-3.84l-8.64,0zm27.36,38.88c-12.352,1.28 -23.552,1.92 -33.6,1.92c-4.352,0 -7.84,-1.312 -10.464,-3.936c-2.624,-2.624 -3.936,-6.112 -3.936,-10.464l0,-23.04c0,-4.8 1.344,-8.544 4.032,-11.232c2.752,-2.752 6.528,-4.128 11.328,-4.128l19.2,0c4.8,0 8.544,1.376 11.232,4.128c2.752,2.688 4.128,6.432 4.128,11.232l0,17.76l-33.12,0l0,3.84c0,0.96 0.32,1.76 0.96,2.4c0.64,0.64 1.44,0.96 2.4,0.96c6.336,0 15.616,-0.48 27.84,-1.44l0,12zm28.763,-12.48l35.04,0l0,13.44l-52.32,0l0,-67.20001l17.28,0l0,53.76001zm60.982,0.96c3.392,0 7.232,-0.64 11.52,-1.92l0,-5.76l-13.92,0c-0.96,0 -1.76,0.32 -2.4,0.96c-0.64,0.64 -0.96,1.44 -0.96,2.4l0,0.96c0,0.96 0.32,1.76 0.96,2.4c0.64,0.64 1.44,0.96 2.4,0.96l2.4,0zm-17.76,-37.44c11.712,-1.28 22.272,-1.92 31.68,-1.92c4.352,0 7.84,1.312 10.464,3.936c2.624,2.624 3.936,6.112 3.936,10.464l0,37.44l-14.88,0l-0.96,-4.8c-3.008,1.984 -6.112,3.456 -9.312,4.416c-3.136,0.896 -5.792,1.344 -7.968,1.344l-3.36,0c-4.352,0 -7.84,-1.312 -10.464,-3.936c-2.624,-2.624 -3.936,-6.112 -3.936,-10.464l0,-4.32c0,-4.352 1.312,-7.84 3.936,-10.464c2.624,-2.624 6.112,-3.936 10.464,-3.936l19.68,0l0,-3.84c0,-0.96 -0.32,-1.76 -0.96,-2.4c-0.64,-0.64 -1.44,-0.96 -2.4,-0.96c-4.16,0 -8.768,0.192 -13.824,0.576c-4.992,0.384 -9.024,0.672 -12.096,0.864l0,-12zm74.854,37.44c3.392,0 7.232,-0.64 11.52,-1.92l0,-5.76l-13.92,0c-0.96,0 -1.76,0.32 -2.4,0.96c-0.64,0.64 -0.96,1.44 -0.96,2.4l0,0.96c0,0.96 0.32,1.76 0.96,2.4c0.64,0.64 1.44,0.96 2.4,0.96l2.4,0zm-17.76,-37.44c11.712,-1.28 22.272,-1.92 31.68,-1.92c4.352,0 7.84,1.312 10.464,3.936c2.624,2.624 3.936,6.112 3.936,10.464l0,37.44l-14.88,0l-0.96,-4.8c-3.008,1.984 -6.112,3.456 -9.312,4.416c-3.136,0.896 -5.792,1.344 -7.968,1.344l-3.36,0c-4.352,0 -7.84,-1.312 -10.464,-3.936c-2.624,-2.624 -3.936,-6.112 -3.936,-10.464l0,-4.32c0,-4.352 1.312,-7.84 3.936,-10.464c2.624,-2.624 6.112,-3.936 10.464,-3.936l19.68,0l0,-3.84c0,-0.96 -0.32,-1.76 -0.96,-2.4c-0.64,-0.64 -1.44,-0.96 -2.4,-0.96c-4.16,0 -8.768,0.192 -13.824,0.576c-4.992,0.384 -9.024,0.672 -12.096,0.864l0,-12zm71.494,0c6.208,-1.28 11.648,-1.92 16.32,-1.92l4.32,0c4.352,0 7.84,1.312 10.464,3.936c2.624,2.624 3.936,6.112 3.936,10.464l0,37.44l-16.8,0l0,-35.52c0,-0.96 -0.32,-1.76 -0.96,-2.4c-0.64,-0.64 -1.44,-0.96 -2.4,-0.96l-3.36,0c-2.432,0 -4.672,0.128 -6.72,0.384c-1.984,0.256 -3.584,0.448 -4.8,0.576l0,37.92l-16.8,0l0,-67.20001l16.8,0l0,17.28001z"/>
 </g>
</svg>