<svg width="30" height="30" viewBox="0 0 30 30" fill="none" xmlns="http://www.w3.org/2000/svg">
<path d="M26.6667 3H19.7C19 1.26 17.1667 0 15 0C12.8333 0 11 1.26 10.3 3H3.33333C1.5 3 0 4.35 0 6V27C0 28.65 1.5 30 3.33333 30H26.6667C28.5 30 30 28.65 30 27V6C30 4.35 28.5 3 26.6667 3ZM15 3C15.9167 3 16.6667 3.675 16.6667 4.5C16.6667 5.325 15.9167 6 15 6C14.0833 6 13.3333 5.325 13.3333 4.5C13.3333 3.675 14.0833 3 15 3ZM15 9C17.7667 9 20 11.01 20 13.5C20 15.99 17.7667 18 15 18C12.2333 18 10 15.99 10 13.5C10 11.01 12.2333 9 15 9ZM25 27H5V24.9C5 21.9 11.6667 20.25 15 20.25C18.3333 20.25 25 21.9 25 24.9V27Z" fill="white"/>
</svg>
